<svg version="1.1" xmlns="http://www.w3.org/2000/svg" xmlns:xlink="http://www.w3.org/1999/xlink" width="89.34245" height="94.62232" viewBox="0,0,89.34245,94.62232"><g transform="translate(-195.32878,-132.68884)"><g data-paper-data="{&quot;isPaintingLayer&quot;:true}" fill-rule="nonzero" stroke="none" stroke-width="0" stroke-linejoin="miter" stroke-miterlimit="10" stroke-dasharray="" stroke-dashoffset="0" style="mix-blend-mode: normal"><g><path d="M281.27995,189.98237c0.9357,0 1.78289,0.80511 2.39741,2.10779c0.61389,1.30143 0.99387,3.09857 0.99387,5.08259c0,1.98341 -0.37997,3.78116 -0.99387,5.08197c-0.61451,1.30268 -1.46171,2.10779 -2.39741,2.10779c-0.9357,0 -1.78353,-0.80512 -2.39741,-2.10779c-0.61451,-1.30081 -0.9945,-3.09856 -0.9945,-5.08197c0,-1.98402 0.37998,-3.78115 0.9945,-5.08259c0.61389,-1.30268 1.46172,-2.10779 2.39741,-2.10779z" fill="#00abab" stroke-linecap="butt"/><path d="M198.72067,188.37852c0.9357,0 1.7829,0.80511 2.39741,2.10779c0.6139,1.30143 0.99387,3.09856 0.99387,5.08258c0,1.98341 -0.37997,3.78116 -0.99387,5.08198c-0.61451,1.30268 -1.46172,2.10779 -2.39741,2.10779c-0.9357,0 -1.78351,-0.80512 -2.39741,-2.10779c-0.61451,-1.30081 -0.99448,-3.09856 -0.99448,-5.08198c0,-1.98402 0.37997,-3.78114 0.99448,-5.08258c0.61389,-1.30268 1.46172,-2.10779 2.39741,-2.10779z" fill="#00abab" stroke-linecap="butt"/><path d="M213.59661,219.43275c-7.17181,-5.18903 -11.09529,-12.86582 -12.04028,-20.81738c-1.32247,-11.20544 1.22965,-22.15594 5.48175,-32.12555c2.07005,-4.73542 7.0369,-7.88164 11.85895,-9.71652c5.21811,-1.88191 12.51804,2.6988 16.81778,-0.89857c4.87651,-4.09304 3.50637,-17.82216 5.70639,-17.81473c2.40793,-0.20608 0.51861,13.14739 4.93778,17.35555c3.93276,3.73287 9.63483,-0.62319 16.15375,2.1053c4.5015,3.30402 8.7381,3.49401 13.2396,10.56246c4.56337,8.03695 4.38514,18.2405 2.95313,27.85862c-1.18385,7.91939 -3.77558,15.92787 -10.57051,21.60083c-6.79493,5.67296 -16.32269,9.36933 -26.96438,9.73816c-10.6423,0.36884 -20.40274,-2.6592 -27.57394,-7.84821z" fill="#00abab" stroke-linecap="butt"/><path d="M261.97492,188.07828v0v0v0v0v0v0c0,0 9.62122,10.87746 6.64828,22.16027c-2.9717,11.28034 -21.85705,15.49902 -34.37384,15.20134c-9.2734,-0.22464 -20.5952,-7.05671 -22.25185,-16.03555c-1.67645,-9.08652 9.02586,-22.73085 14.78301,-23.56878l17.09563,-2.72416c3.42532,-0.02414 6.73243,1.34785 9.91021,2.18763c2.7842,0.73395 8.18734,2.78047 8.18858,2.77924z" fill="#00abab" stroke-linecap="butt"/><path d="M254.63045,210.88462c0,0 -3.99774,5.39016 -12.94935,5.39016c-8.94914,0 -11.34592,-3.5429 -11.34592,-3.5429" fill="#00abab" stroke-linecap="round"/><path d="M229.86483,201.9095c0.81378,0 1.55082,0.32985 2.08551,0.86144c0.53346,0.53283 0.86452,1.26739 0.86452,2.07809c0,0.81131 -0.33108,1.54588 -0.86452,2.07809c-0.53469,0.53159 -1.27174,0.86142 -2.08551,0.86142c-0.8144,0 -1.55147,-0.32985 -2.08614,-0.86142c-0.53346,-0.5322 -0.86452,-1.26678 -0.86452,-2.07809c0,-0.81068 0.33108,-1.54526 0.86452,-2.07809c0.53469,-0.53159 1.27174,-0.86144 2.08614,-0.86144v0v0v0v0v0v0v0v0v0v0v0v0v0v0v0v0v0v0v0v0v0v0v0v0v0v0v0v0v0z" fill="#00abab" stroke-linecap="butt"/><path d="M254.61869,201.60007c0.81379,0 1.55084,0.32985 2.08551,0.86142c0.53346,0.53283 0.86452,1.26739 0.86452,2.07809c0,0.81131 -0.33108,1.54588 -0.86452,2.07809c-0.53467,0.53159 -1.27172,0.86142 -2.08551,0.86142c-0.8144,0 -1.55145,-0.32985 -2.08614,-0.86142c-0.53346,-0.5322 -0.86452,-1.26678 -0.86452,-2.07809c0,-0.81068 0.33108,-1.54526 0.86452,-2.07809c0.53467,-0.53159 1.27174,-0.86142 2.08614,-0.86142v0v0v0v0v0v0v0v0v0v0v0v0v0v0v0v0v0v0v0v0v0v0v0v0v0v0v0v0v0z" fill="#00abab" stroke-linecap="butt"/><path d="M281.27994,184.61356c0.9357,0 1.7829,0.80511 2.39741,2.10779c0.61389,1.30142 0.99387,3.09857 0.99387,5.08259c0,1.98341 -0.37997,3.78116 -0.99387,5.08198c-0.61451,1.30268 -1.46171,2.10779 -2.39741,2.10779c-0.9357,0 -1.78352,-0.80511 -2.39741,-2.10779c-0.61451,-1.30081 -0.9945,-3.09857 -0.9945,-5.08198c0,-1.98402 0.37998,-3.78115 0.9945,-5.08259c0.61389,-1.30268 1.46171,-2.10779 2.39741,-2.10779z" fill="#00cccc" stroke-linecap="butt"/><path d="M198.72067,183.00971c0.9357,0 1.7829,0.80511 2.39741,2.10779c0.6139,1.30142 0.99387,3.09857 0.99387,5.08259c0,1.98341 -0.37997,3.78116 -0.99387,5.08198c-0.61451,1.30268 -1.46171,2.10779 -2.39741,2.10779c-0.9357,0 -1.78351,-0.80511 -2.39741,-2.10779c-0.61451,-1.30081 -0.99448,-3.09857 -0.99448,-5.08198c0,-1.98402 0.37997,-3.78115 0.99448,-5.08259c0.61389,-1.30268 1.46171,-2.10779 2.39741,-2.10779z" fill="#00cccc" stroke-linecap="butt"/><path d="M213.59661,214.06395c-7.1718,-5.18903 -11.09529,-12.86582 -12.04028,-20.81739c-1.32247,-11.20544 1.22965,-22.15594 5.48175,-32.12555c2.07005,-4.73542 7.0369,-7.88163 11.85895,-9.71651c5.21811,-1.8819 12.51803,2.69879 16.81778,-0.89857c4.87651,-4.09305 3.50638,-17.82216 5.70639,-17.81473c2.40793,-0.20608 0.5186,13.1474 4.93778,17.35555c3.93276,3.73287 9.63483,-0.62319 16.15376,2.1053c4.5015,3.30402 8.7381,3.49401 13.2396,10.56246c4.56337,8.03695 4.38514,18.2405 2.95313,27.85862c-1.18385,7.91939 -3.77558,15.92787 -10.57051,21.60083c-6.79493,5.67296 -16.32269,9.36933 -26.96438,9.73816c-10.6423,0.36884 -20.40274,-2.65919 -27.57394,-7.84821z" fill="#00cccc" stroke-linecap="butt"/><path d="M261.97492,182.70947v0v0v0v0v0v0c0,0 9.62121,10.87746 6.64828,22.16027c-2.9717,11.28034 -21.85705,15.49902 -34.37384,15.20134c-9.2734,-0.22463 -20.5952,-7.05671 -22.25185,-16.03555c-1.67645,-9.08652 9.02587,-22.73085 14.78301,-23.56878l17.09563,-2.72416c3.42532,-0.02414 6.73243,1.34786 9.91021,2.18763c2.7842,0.73395 8.18734,2.78047 8.18858,2.77924z" fill="#00cccc" stroke-linecap="butt"/><path d="M254.63045,205.51582c0,0 -3.99775,5.39016 -12.94935,5.39016c-8.94914,0 -11.34592,-3.54289 -11.34592,-3.54289" fill="#00cccc" stroke-linecap="round"/><path d="M229.86483,196.5407c0.81378,0 1.55082,0.32985 2.08551,0.86144c0.53346,0.53283 0.86452,1.26739 0.86452,2.07809c0,0.81131 -0.33108,1.54588 -0.86452,2.07809c-0.53469,0.53159 -1.27174,0.86143 -2.08551,0.86143c-0.8144,0 -1.55146,-0.32985 -2.08614,-0.86143c-0.53346,-0.5322 -0.86452,-1.26678 -0.86452,-2.07809c0,-0.81068 0.33108,-1.54526 0.86452,-2.07809c0.53469,-0.53159 1.27174,-0.86144 2.08614,-0.86144v0v0v0v0v0v0v0v0v0v0v0v0v0v0v0v0v0v0v0v0v0v0v0v0v0v0v0v0v0z" fill="#00cccc" stroke-linecap="butt"/><path d="M254.61869,196.23127c0.81379,0 1.55084,0.32985 2.08551,0.86143c0.53346,0.53283 0.86452,1.26739 0.86452,2.07809c0,0.81131 -0.33108,1.54588 -0.86452,2.07809c-0.53467,0.53159 -1.27172,0.86143 -2.08551,0.86143c-0.8144,0 -1.55145,-0.32985 -2.08614,-0.86143c-0.53346,-0.5322 -0.86452,-1.26678 -0.86452,-2.07809c0,-0.81068 0.33108,-1.54526 0.86452,-2.07809c0.53467,-0.53159 1.27174,-0.86143 2.08614,-0.86143v0v0v0v0v0v0v0v0v0v0v0v0v0v0v0v0v0v0v0v0v0v0v0v0v0v0v0v0v0z" fill="#00cccc" stroke-linecap="butt"/></g></g></g></svg>