<svg version="1.1" xmlns="http://www.w3.org/2000/svg" xmlns:xlink="http://www.w3.org/1999/xlink" width="127.05082" height="158.44223" viewBox="0,0,127.05082,158.44223"><g transform="translate(-106.81634,-176.415)"><g data-paper-data="{&quot;isPaintingLayer&quot;:true}" fill-rule="nonzero" stroke-miterlimit="10" stroke-dasharray="" stroke-dashoffset="0" style="mix-blend-mode: normal"><path d="M169.56107,293.20675l9.95711,-21.76546l10.8623,2.81671l-6.63807,21.76546c0,0 -4.21676,9.47092 -11.04798,6.63797c-7.27792,-3.0182 -3.13336,-9.45468 -3.13336,-9.45468z" data-paper-data="{&quot;index&quot;:null}" fill="#faa51d" stroke="#414042" stroke-width="3.2673" stroke-linecap="butt" stroke-linejoin="miter"/><path d="M179.1366,273.16399l0.07916,-0.01979c0.01959,-0.05355 0.04009,-0.10676 0.06155,-0.15962c-0.17043,-0.67776 -0.02609,-1.20189 0.58828,-1.64752c0.00978,-0.15793 0.01627,-0.29667 0.01627,-0.4079c0,0 0,-0.76819 0.76819,-0.76819c0.49131,0 0.6684,0.31423 0.73222,0.54074l0.5481,-0.02862c0,0 0.11444,0 0.25497,0.04417l0.01424,-0.00474l0.00351,0.01051c0.09058,0.03046 0.19021,0.07949 0.27622,0.15842c0.44788,-0.12776 0.90984,-0.19844 1.36657,-0.19844l0.88807,0.28557c0,0 0.57821,0.19273 0.53289,0.74989c0.31131,0.07196 0.6154,0.16113 0.90562,0.27099c0.07971,0.01374 0.15723,0.03042 0.23191,0.05051c0.29351,-0.50209 0.89022,-0.30319 0.89022,-0.30319c0.84356,0.29479 1.53808,0.12542 2.0334,0.58571c1.16174,-0.63695 2.60553,-0.29074 3.29861,0.87334c0.07255,0.12185 0.05847,1.57125 0.05847,1.83036v0.76819c0,0 0,0.76819 -0.76819,0.76819c-0.76819,0 -0.76819,-0.76819 -0.76819,-0.76819v-0.76819c0,-0.4146 0.14901,-0.83782 0.05848,-1.24241c-0.14193,-0.63428 -0.33497,-0.15726 -0.61189,-0.06855c-0.3034,0.0972 -0.52532,0.20894 -0.70359,0.3414l-0.06274,0.18823l-0.03642,-0.01214c-0.06619,0.34567 -0.19006,0.66473 -0.43046,0.90065l-0.03965,0.11894c-0.09654,0.3139 -0.38881,0.54208 -0.73437,0.54208c-0.36333,0 -0.66774,-0.25224 -0.74769,-0.59115c-0.06576,-0.07113 -0.13541,-0.15006 -0.207,-0.23304c-0.30667,0.27422 -0.60803,0.55714 -1.05591,0.76572c-0.53891,0.25097 -1.10309,0.20254 -1.66138,0.06254c-0.08098,0.0203 -0.16416,0.02008 -0.24994,-0.00834c-0.36482,-0.12086 -0.6542,-0.23437 -0.88032,-0.3419c-0.23909,-0.07494 -0.47273,-0.13973 -0.69815,-0.17587c-0.6268,-0.10048 -1.28605,-0.06414 -1.88418,-0.27678c-0.26076,-0.0927 -0.56371,-0.14818 -0.81598,-0.26688c-0.01218,0.00418 -0.0245,0.00806 -0.03694,0.01164c-0.13449,1.21134 0.04344,2.62052 0.04344,3.61471v0.25606c0,0 0,0.76819 -0.76819,0.76819c-0.76819,0 -0.76819,-0.76819 -0.76819,-0.76819v-0.25606c0,-1.70427 -0.20738,-3.5196 0.30914,-5.07047zM183.85887,273.91805c0.1426,-0.12155 0.2697,-0.24704 0.34387,-0.38062c-0.28781,-0.00091 -0.57492,-0.01697 -0.85904,-0.05756c-0.31622,-0.04517 -0.59637,-0.14391 -0.85763,-0.27562l-0.9825,-0.24562c-0.08511,-0.01931 -0.16485,-0.05276 -0.23663,-0.09774c-0.02292,0.36373 -0.0288,0.64503 0.00629,0.69187c0.16914,0.22578 1.73024,0.14625 2.0605,0.20303c0.13877,0.02385 0.3202,0.08566 0.52513,0.16227z" data-paper-data="{&quot;index&quot;:null}" fill="#faa51d" stroke="none" stroke-width="0.5" stroke-linecap="butt" stroke-linejoin="miter"/><path d="M194.43637,197.81682l8.65497,-6.04312" data-paper-data="{&quot;index&quot;:null}" fill="none" stroke="#414042" stroke-width="3.2673" stroke-linecap="round" stroke-linejoin="round"/><g data-paper-data="{&quot;index&quot;:null}" fill="#faa51d" stroke="#414042" stroke-width="3.2673" stroke-linecap="round" stroke-linejoin="round"><path d="M191.56845,294.50667c0,0 -3.89218,15.26143 -1.9973,27.55251c0.56334,3.43126 -0.25606,4.60916 -3.48247,5.78705c-3.43126,1.22911 -19.1536,1.5876 -19.40967,-1.94609c-0.92183,-12.49593 11.11319,-5.22371 11.67653,-11.62532c0.2225,-2.58989 0.32127,-5.00964 0.33258,-7.24018"/><path d="M174.41215,319.08884"/></g><path d="M232.23352,241.85645c0,0 -5.69533,1.93465 -8.38812,2.34112c-2.68136,0.4564 -8.02379,0.83916 -8.02379,0.83916" data-paper-data="{&quot;index&quot;:null}" fill="none" stroke="#414042" stroke-width="3.2673" stroke-linecap="round" stroke-linejoin="round"/><path d="M214.19122,238.94785c0,0 2.72474,-3.5661 7.42443,-7.37429c5.21435,-4.24128 8.22832,-5.71953 8.22832,-5.71953" data-paper-data="{&quot;index&quot;:null}" fill="none" stroke="#414042" stroke-width="3.2673" stroke-linecap="round" stroke-linejoin="round"/><path d="M126.93784,234.43401c0,0 -7.37465,-1.1779 -11.11319,-2.50943c-4.4043,-1.53639 -7.37465,-4.09703 -7.37465,-4.09703" data-paper-data="{&quot;index&quot;:null}" fill="none" stroke="#414042" stroke-width="3.2673" stroke-linecap="round" stroke-linejoin="round"/><path d="M126.16965,244.06202c0,0 -4.4043,1.79245 -8.96225,2.25337c-4.50673,0.46092 -7.52829,0.15364 -7.52829,0.15364" data-paper-data="{&quot;index&quot;:null}" fill="none" stroke="#414042" stroke-width="3.2673" stroke-linecap="round" stroke-linejoin="round"/><path d="M175.48762,268.59298c11.47168,0 18.3342,3.12398 18.3342,14.39081c0,11.26683 1.74124,26.47704 -18.3342,26.47704c-20.07544,0 -17.20752,-16.69539 -17.20752,-28.01343c0,-11.26683 5.73584,-12.85442 17.20752,-12.85442z" data-paper-data="{&quot;index&quot;:null}" fill="#faa51d" stroke="#414042" stroke-width="3.2673" stroke-linecap="round" stroke-linejoin="round"/><g data-paper-data="{&quot;index&quot;:null}" fill="#faa51d" stroke="#414042" stroke-width="3.2673" stroke-linecap="round" stroke-linejoin="round"><path d="M173.18714,308.729c-1.69965,5.09753 -3.07359,10.42401 -1.79655,18.70753c0.56334,3.43126 -0.25606,4.60916 -3.48247,5.78705c-3.43126,1.22911 -19.1536,1.5876 -19.40967,-1.94609c-0.92183,-12.49593 11.11319,-5.22371 11.67653,-11.62532c1.28032,-14.90294 0,-18.28299 0,-18.28299"/><path d="M157.76798,321.13736"/></g><path d="M167.59013,278.77377c0.19352,1.11012 0.38884,2.22376 0.71575,3.31345c0.40201,1.34004 1.33286,2.06818 -0.03262,2.97192l-0.93856,-0.04646c0,-0.9028 -0.08951,-1.73663 -0.19894,-2.5678c-0.18736,0.1543 -0.45188,0.26322 -0.82531,0.26322c-0.16104,0 -0.30182,-0.02025 -0.4249,-0.05567c-0.27844,-0.79569 -0.56715,-1.58844 -0.80234,-2.39621c-0.01646,-0.05654 -0.0322,-0.11288 -0.04727,-0.16904c0.02897,-0.84025 0.15128,-1.68682 0.01729,-2.5143c-0.04021,-0.24835 -0.4568,-1.05249 -0.73872,-1.6774c-0.06934,-0.25062 -0.15285,-0.50376 -0.25556,-0.76054c0.00409,-0.01706 0.00942,-0.03301 0.01592,-0.04795l0.13275,-0.39988c-0.15555,-0.25888 -0.53921,-1.07225 0.31038,-1.70944c0.10973,-0.08229 0.21651,-0.14402 0.31973,-0.18863l0.1924,-0.57956c0.10597,0.15688 0.2169,0.31874 0.33071,0.485c0.57492,0.03968 0.94961,0.53926 0.94961,0.53926c1.11191,1.48255 2.49063,3.23857 3.02632,5.03559c0.1425,0.47803 -0.01173,0.99981 0.04023,1.49592c0.18877,1.80255 0.51836,3.40854 0.51836,5.24744l-0.93856,2.51418c-0.76805,-0.68417 -1.68378,-1.23206 -2.30414,-2.05251c-0.2829,-0.37415 -0.15372,-0.92808 -0.28912,-1.37718c-0.14631,-0.48526 -0.31028,-0.96554 -0.47798,-1.44475c-0.85542,-0.24615 -0.85542,-1.22465 -0.85542,-1.22465v-1.02426c0,-0.10532 0.00217,-0.21078 0.00581,-0.31635c-0.38964,-1.45209 -0.33144,-2.78213 -0.72143,-4.1917c-0.16215,-0.35942 -0.27975,-0.65955 -0.25556,-0.76054l0.01592,-0.04795c0.04617,-0.10618 0.1508,-0.16076 0.27966,-0.19395c-0.03119,-0.04125 -0.06207,-0.08224 -0.09259,-0.12293c0,0 -0.02234,-0.02979 -0.05432,-0.08301l0.63011,-1.89808c0.18739,-0.081 0.36301,-0.10561 0.52311,-0.09456c0.36578,0.53433 0.76138,1.11401 1.11819,1.71928l0.03441,-0.00846c0.02738,0.06846 0.05404,0.13709 0.08,0.20588c0.45567,0.80039 0.83192,1.64105 0.97423,2.47746c0.01496,0.08795 0.02053,0.88486 0.02246,1.68513z" fill="#faa51d" stroke="none" stroke-width="0.5" stroke-linecap="butt" stroke-linejoin="miter"/><path d="M150.61232,296.02344l9.95711,-21.76546l10.8623,2.81671l-6.63807,21.76546c0,0 -4.21676,9.47092 -11.04798,6.63797c-7.27792,-3.0182 -3.13336,-9.45468 -3.13336,-9.45468z" fill="#faa51d" stroke="#414042" stroke-width="3.2673" stroke-linecap="butt" stroke-linejoin="miter"/><path d="M161.22759,276.86935l0.73092,-2.46491c0,0 4.20374,-0.03427 6.858,0.40108c1.92293,0.3154 4.82115,1.12169 4.82115,1.12169l-1.07045,3.89949z" fill="#faa51d" stroke="none" stroke-width="0" stroke-linecap="butt" stroke-linejoin="miter"/><path d="M173.7976,191.77371c2.50943,-0.25606 7.68193,-0.51213 10.54985,-0.35849c7.63071,0.35849 14.95415,3.12398 14.95415,3.12398l21.04848,-13.77626l-3.63611,30.62528c-1.02426,-1.28032 17.10509,20.7412 5.63341,39.22904c-11.47168,18.48784 -36.00263,26.73311 -66.32064,20.68999c-30.36922,-6.04312 -37.59023,-23.5067 -35.59293,-32.77622c1.9973,-9.26953 13.46898,-12.64957 13.46898,-12.64957c0,0 0.15364,-7.27222 5.37735,-16.13205c3.12398,-5.27492 13.52019,-13.00806 13.52019,-13.00806l4.60916,-18.69269l12.08623,11.5741z" data-paper-data="{&quot;index&quot;:null}" fill="#faa51d" stroke="#414042" stroke-width="3.2673" stroke-linecap="round" stroke-linejoin="round"/></g></g></svg>