<svg version="1.1" xmlns="http://www.w3.org/2000/svg" xmlns:xlink="http://www.w3.org/1999/xlink" width="482" height="362" viewBox="0,0,482,362"><g transform="translate(1.5,1)"><g data-paper-data="{&quot;isPaintingLayer&quot;:true}" fill-rule="nonzero" stroke-miterlimit="10" stroke-dasharray="" stroke-dashoffset="0" style="mix-blend-mode: normal"><path d="M-1.5,361v-362h482v362z" fill-opacity="0.50196" fill="#000000" stroke="none" stroke-width="0" stroke-linecap="butt" stroke-linejoin="miter"/><path d="M415.11292,86.01396c4.30833,0 7.79743,3.48909 7.79743,7.79743c0,36.032 0,136.34522 0,172.37722c0,4.30833 -3.48909,7.79743 -7.79743,7.79743c-71.60318,0 -278.62263,0 -350.22581,0c-4.30833,0 -7.79743,-3.48909 -7.79743,-7.79743c0,-36.032 0,-136.34522 0,-172.37722c0,-4.30833 3.48909,-7.79743 7.79743,-7.79743c71.60318,0 278.62263,0 350.22581,0z" fill="#ffffff" stroke="#0fbd8c" stroke-width="2.5" stroke-linecap="butt" stroke-linejoin="miter"/><text transform="translate(93.80152,208.64941) scale(0.27572,0.27572)" font-size="40" xml:space="preserve" fill="#0fbd8c" fill-rule="nonzero" stroke="none" stroke-width="1" stroke-linecap="butt" stroke-linejoin="miter" stroke-miterlimit="10" stroke-dasharray="" stroke-dashoffset="0" font-family="Sans Serif" font-weight="normal" text-anchor="start" style="mix-blend-mode: normal"><tspan x="0" dy="0">This project is powered by CloudLink. Click on "Connect"</tspan><tspan x="0" dy="46.150000000000006px">                              to connect to CloudLink.</tspan></text><g fill="#0fbd8c" stroke="none" stroke-width="1" stroke-linecap="butt" stroke-linejoin="miter"><path d="M191.24546,135.47558c-2.33687,0 -4.19263,0.89351 -5.49853,2.68053c-1.3059,1.78702 -1.92448,4.26136 -1.92448,7.42301c0,6.59823 2.47434,9.89735 7.42301,9.89735c2.06195,0 4.60502,-0.54985 7.56047,-1.58083v5.2236c-2.40561,1.03097 -5.15487,1.51209 -8.11033,1.51209c-4.26136,0 -7.56047,-1.3059 -9.82862,-3.9177c-2.26814,-2.6118 -3.43658,-6.3233 -3.43658,-11.20325c0,-3.09292 0.54985,-5.77345 1.64956,-8.04159c1.09971,-2.33687 2.74926,-4.05516 4.81121,-5.29233c2.06195,-1.23717 4.53628,-1.85575 7.35428,-1.85575c2.88673,0 5.77345,0.68732 8.66018,2.06195l-1.99322,5.08614c-1.09971,-0.54985 -2.19941,-0.96224 -3.29912,-1.37463c-1.16844,-0.41239 -2.19941,-0.61858 -3.36785,-0.61858z"/><path d="M210.83395,160.21895h-6.18584v-31.41033h6.18584z"/><path d="M237.77673,148.87824c0,3.64277 -0.96224,6.5295 -2.88673,8.59145c-1.92448,2.06195 -4.60502,3.09292 -8.11033,3.09292c-2.19941,0 -4.05516,-0.48112 -5.70472,-1.44336c-1.64956,-0.96224 -2.95546,-2.33687 -3.84897,-4.12389c-0.89351,-1.78702 -1.3059,-3.84897 -1.3059,-6.18584c0,-3.71151 0.96224,-6.5295 2.88673,-8.59145c1.92448,-2.06195 4.60502,-3.09292 8.11033,-3.09292c2.19941,0 4.05516,0.48112 5.70472,1.44336c1.64956,0.96224 2.95546,2.26814 3.84897,4.05516c0.82478,1.78702 1.3059,3.84897 1.3059,6.25457zM222.17466,148.87824c0,2.26814 0.34366,3.9177 1.09971,5.08614c0.75605,1.16844 1.92448,1.71829 3.57404,1.71829c1.64956,0 2.81799,-0.54985 3.57404,-1.71829c0.68732,-1.16844 1.09971,-2.81799 1.09971,-5.08614c0,-2.26814 -0.34366,-3.9177 -1.09971,-5.0174c-0.75605,-1.09971 -1.92448,-1.64956 -3.57404,-1.64956c-1.64956,0 -2.81799,0.54985 -3.57404,1.64956c-0.75605,1.09971 -1.09971,2.74926 -1.09971,5.0174z"/><path d="M258.87733,160.21895l-0.82478,-2.88673h-0.41239c-0.68732,1.03097 -1.58083,1.85575 -2.81799,2.40561c-1.23717,0.54985 -2.6118,0.82478 -4.12389,0.82478c-2.68053,0 -4.67375,-0.68732 -5.97965,-2.13068c-1.37463,-1.44336 -1.99322,-3.43658 -1.99322,-6.11711v-14.70856h6.18584v13.19646c0,1.64956 0.27493,2.81799 0.89351,3.64277c0.54985,0.82478 1.51209,1.23717 2.74926,1.23717c1.71829,0 2.95546,-0.54985 3.71151,-1.71829c0.75605,-1.16844 1.16844,-3.09292 1.16844,-5.70472v-10.65339h6.18584v22.54396h-4.81121z"/><path d="M277.15993,160.63134c-2.68053,0 -4.74248,-1.03097 -6.25457,-3.09292c-1.51209,-2.06195 -2.26814,-4.87994 -2.26814,-8.59145c0,-3.71151 0.75605,-6.59823 2.33687,-8.66018c1.51209,-2.06195 3.64277,-3.09292 6.39204,-3.09292c2.81799,0 5.0174,1.09971 6.5295,3.29912h0.20619c-0.34366,-1.64956 -0.48112,-3.16165 -0.48112,-4.53628v-7.14808h6.18584v31.41033h-4.74248l-1.16844,-2.95546h-0.27493c-1.37463,2.19941 -3.57404,3.36785 -6.46077,3.36785zM279.2906,155.68266c1.58083,0 2.74926,-0.48112 3.43658,-1.37463c0.68732,-0.89351 1.16844,-2.47434 1.16844,-4.67375v-0.68732c0,-2.40561 -0.34366,-4.19263 -1.09971,-5.2236c-0.75605,-1.03097 -1.99322,-1.58083 -3.64277,-1.58083c-1.37463,0 -2.47434,0.54985 -3.23038,1.71829c-0.75605,1.16844 -1.16844,2.88673 -1.16844,5.08614c0,2.19941 0.41239,3.9177 1.16844,5.0174c0.89351,1.16844 1.99322,1.71829 3.36785,1.71829z"/><path d="M296.74843,160.21895v-29.55458h6.25457v24.33098h11.95929v5.15487h-18.21387z"/><path d="M319.36113,131.76407c0,-1.99322 1.09971,-3.02419 3.36785,-3.02419c2.26814,0 3.36785,1.03097 3.36785,3.02419c0,0.96224 -0.27493,1.71829 -0.82478,2.19941c-0.54985,0.54985 -1.37463,0.82478 -2.54307,0.82478c-2.33687,0 -3.36785,-0.96224 -3.36785,-3.02419zM325.68442,160.21895h-6.18584v-22.54396h6.18584z"/><path d="M353.0396,160.21895h-6.18584v-13.19646c0,-1.64956 -0.27493,-2.81799 -0.89351,-3.64277c-0.54985,-0.82478 -1.51209,-1.23717 -2.74926,-1.23717c-1.71829,0 -2.95546,0.54985 -3.71151,1.71829c-0.75605,1.16844 -1.16844,3.09292 -1.16844,5.70472v10.65339h-6.18584v-22.54396h4.67375l0.82478,2.88673h0.34366c0.68732,-1.09971 1.64956,-1.92448 2.81799,-2.47434c1.23717,-0.54985 2.54307,-0.82478 4.12389,-0.82478c2.6118,0 4.60502,0.68732 5.97965,2.13068c1.37463,1.44336 2.06195,3.43658 2.06195,6.11711z"/><path d="M365.27382,147.91599l2.68053,-3.43658l6.3233,-6.87316h6.94189l-8.9351,9.75988l9.48496,12.78407h-7.07935l-6.5295,-9.1413l-2.6118,2.13068v7.01062h-6.18584v-31.3416h6.18584v14.02124l-0.34366,5.15487h0.06873v-0.06873z"/></g><g fill="none" stroke="#0fbd8c" stroke-width="7.5" stroke-linecap="round" stroke-linejoin="round"><path d="M104.05004,144.9949c13.12773,-12.57788 32.02891,-12.57788 45.15664,0"/><path d="M92.57187,131.66098c19.3823,-19.79469 48.38703,-19.79469 67.76933,0"/><path d="M115.39074,158.12263c6.66696,-5.63599 15.6708,-5.63599 22.33776,0"/><path d="M126.45654,172.55626v0"/></g></g></g></svg>