<svg version="1.1" xmlns="http://www.w3.org/2000/svg" xmlns:xlink="http://www.w3.org/1999/xlink" width="15.09613" height="2.72183" viewBox="0,0,15.09613,2.72183"><g transform="translate(-232.45193,-178.63908)"><g data-paper-data="{&quot;isPaintingLayer&quot;:true}" fill="#ffffff" fill-rule="nonzero" stroke="#ffffff" stroke-width="2" stroke-linecap="butt" stroke-linejoin="miter" stroke-miterlimit="10" stroke-dasharray="" stroke-dashoffset="0" style="mix-blend-mode: normal"><path d="M239.63909,180c0,-0.19932 0.16159,-0.36092 0.36092,-0.36092c0.19932,0 0.36092,0.16159 0.36092,0.36092c0,0.19932 -0.16159,0.36091 -0.36092,0.36091c-0.19932,0 -0.36092,-0.16159 -0.36092,-0.36091z"/><path d="M245.82624,180c0,-0.19932 0.16159,-0.36092 0.36092,-0.36092c0.19932,0 0.36092,0.16159 0.36092,0.36092c0,0.19932 -0.16159,0.36091 -0.36092,0.36091c-0.19932,0 -0.36092,-0.16159 -0.36092,-0.36091z"/><path d="M233.45194,180c0,-0.19932 0.16159,-0.36092 0.36092,-0.36092c0.19932,0 0.36092,0.16159 0.36092,0.36092c0,0.19932 -0.16159,0.36091 -0.36092,0.36091c-0.19932,0 -0.36092,-0.16159 -0.36092,-0.36091z"/></g></g></svg>