<svg version="1.1" xmlns="http://www.w3.org/2000/svg" xmlns:xlink="http://www.w3.org/1999/xlink" width="13.75" height="12.75" viewBox="0,0,13.75,12.75"><g transform="translate(-233.125,-173.625)"><g data-paper-data="{&quot;isPaintingLayer&quot;:true}" fill="none" fill-rule="nonzero" stroke="#ffffff" stroke-width="1" stroke-linecap="round" stroke-miterlimit="10" stroke-dasharray="" stroke-dashoffset="0" style="mix-blend-mode: normal"><path d="M234.06249,180c0,0 2.15909,-4.31818 5.93751,-4.31818c3.77841,0 5.93751,4.31818 5.93751,4.31818c0,0 -2.15909,4.31818 -5.93749,4.31818c-3.7784,0 -5.93749,-4.31818 -5.93749,-4.31818z" stroke-linejoin="round"/><path d="M238.38068,180c0,-0.89432 0.725,-1.61931 1.61932,-1.61931c0.89432,0 1.61932,0.725 1.61932,1.61932c0,0.89432 -0.725,1.61932 -1.61931,1.61932c-0.89432,0 -1.61931,-0.725 -1.61931,-1.61931z" stroke-linejoin="round"/><path d="M233.625,185.875l12.75,-11.75" stroke-linejoin="miter"/></g></g></svg>