<svg version="1.1" xmlns="http://www.w3.org/2000/svg" xmlns:xlink="http://www.w3.org/1999/xlink" width="90.88719" height="93.67264" viewBox="0,0,90.88719,93.67264"><g transform="translate(-194.55641,-133.16368)"><g data-paper-data="{&quot;isPaintingLayer&quot;:true}" fill-rule="nonzero" stroke="none" stroke-width="0" stroke-linejoin="miter" stroke-miterlimit="10" stroke-dasharray="" stroke-dashoffset="0" style="mix-blend-mode: normal"><g><path d="M235.82006,141.67577c3.57604,-0.00657 6.93862,4.21193 10.29134,5.19659c9.12342,2.6676 17.8054,-2.28529 27.51342,6.35071c6.17928,5.49349 12.09578,19.12836 11.80874,32.47615c-0.27852,12.94054 -5.09082,21.63369 -13.31561,29.08073c-8.22546,7.4464 -19.58357,12.05637 -32.1188,12.05637c-12.53523,0 -23.89334,-4.60997 -32.11815,-12.05637c-8.2248,-7.44705 -13.06075,-16.20261 -13.31628,-29.08073c-0.26144,-13.15469 5.68726,-26.87229 11.80872,-32.76451c8.88103,-8.17093 17.36398,-2.43243 25.89223,-5.48496c2.13224,-0.7633 2.0705,-5.56903 3.55439,-5.77398z" fill="#caac28" stroke-linecap="butt"/><path d="M240.96998,179.31301c9.54907,0 18.20082,2.39366 24.46615,6.26072c6.26598,3.86772 10.1442,9.20815 10.1442,15.10167c0,5.89352 -3.87822,11.23395 -10.1442,15.10167c-6.26532,3.86705 -14.91708,6.26074 -24.46615,6.26074c-9.54907,0 -18.20148,-2.39368 -24.46681,-6.26074c-6.26598,-3.86772 -10.1442,-9.20815 -10.1442,-15.10167c0,-5.89352 3.87822,-11.23397 10.1442,-15.10167c6.26532,-3.86705 14.91774,-6.26072 24.46681,-6.26072z" fill="#caac28" stroke-linecap="butt"/><path d="M240.38273,216.70393c-10.32025,0.69498 -11.47241,-12.72508 -11.47241,-12.72508c0,0 5.89812,-0.18721 13.5094,-0.6595c7.60995,-0.46966 9.43477,0 9.43477,0c0,0 -1.15414,12.68763 -11.47175,13.38458z" fill="#caac28" stroke-linecap="round"/><path d="M259.68317,192.67592v0v0v0c0.62535,0 1.20012,0.40858 1.38536,1.03788c0.22663,0.76856 0.27654,1.56074 0.15174,2.35425c-0.47164,2.95333 -3.27783,4.96995 -6.2581,4.50817c-2.98617,-0.47297 -5.033,-3.26207 -4.56596,-6.21736c0.12285,-0.78958 0.85526,-1.32559 1.64811,-1.20209c0.78759,0.12349 1.32557,0.86183 1.20143,1.64811c-0.21743,1.38733 0.75279,2.69584 2.16508,2.91786c1.39717,0.22005 2.73721,-0.72388 2.95531,-2.10793c0.05846,-0.3685 0.03679,-0.73703 -0.06634,-1.09305c-0.22663,-0.76396 0.21415,-1.566 0.97678,-1.78934c0.13795,-0.0381 0.27261,-0.05649 0.4066,-0.05649z" fill="#caac28" stroke-linecap="butt"/><path d="M232.17699,192.67592v0v0v0c0.62535,0 1.20012,0.40858 1.38469,1.03788c0.22663,0.76856 0.27589,1.56074 0.15109,2.35425c-0.46902,2.95333 -3.28243,4.96995 -6.2581,4.50817c-2.98486,-0.47297 -5.03169,-3.26207 -4.56596,-6.21736c0.12414,-0.78958 0.85659,-1.32559 1.64877,-1.20209c0.78759,0.12349 1.32492,0.86183 1.20209,1.64811c-0.21743,1.38733 0.75277,2.69584 2.16508,2.91786c1.40112,0.22005 2.73721,-0.72388 2.95596,-2.10793c0.05715,-0.3685 0.03481,-0.73703 -0.06765,-1.09305c-0.22598,-0.76396 0.21348,-1.566 0.97742,-1.78934c0.1373,-0.0381 0.27327,-0.05649 0.40662,-0.05649z" fill="#caac28" stroke-linecap="butt"/><path d="M235.82006,133.16369c3.57604,-0.00657 6.93862,4.21193 10.29134,5.19659c9.12342,2.6676 17.8054,-2.28529 27.51342,6.35071c6.17928,5.49349 12.09578,19.12836 11.80874,32.47615c-0.27852,12.94054 -5.09082,21.63369 -13.31561,29.08073c-8.22546,7.4464 -19.58357,12.05637 -32.1188,12.05637c-12.53523,0 -23.89334,-4.60997 -32.11815,-12.05637c-8.2248,-7.44705 -13.06075,-16.20261 -13.31628,-29.08073c-0.26144,-13.15469 5.68726,-26.87229 11.80872,-32.76451c8.88103,-8.17093 17.36398,-2.43243 25.89223,-5.48496c2.13224,-0.7633 2.0705,-5.56903 3.55439,-5.77398z" fill="#ffd833" stroke-linecap="butt"/><path d="M240.96998,170.80093c9.54907,0 18.20082,2.39366 24.46615,6.26072c6.26598,3.86772 10.1442,9.20815 10.1442,15.10167c0,5.89352 -3.87822,11.23395 -10.1442,15.10167c-6.26532,3.86705 -14.91708,6.26074 -24.46615,6.26074c-9.54907,0 -18.20148,-2.39368 -24.46681,-6.26074c-6.26598,-3.86772 -10.1442,-9.20815 -10.1442,-15.10167c0,-5.89352 3.87822,-11.23397 10.1442,-15.10167c6.26532,-3.86705 14.91774,-6.26072 24.46681,-6.26072z" fill="#ffd833" stroke-linecap="butt"/><path d="M240.38273,208.19185c-10.32025,0.69498 -11.47241,-12.72508 -11.47241,-12.72508c0,0 5.89812,-0.18721 13.5094,-0.6595c7.60995,-0.46966 9.43477,0 9.43477,0c0,0 -1.15414,12.68763 -11.47175,13.38458z" fill="#ffd833" stroke-linecap="round"/><path d="M259.68317,184.16384v0v0v0c0.62535,0 1.20012,0.40858 1.38536,1.03788c0.22663,0.76856 0.27654,1.56074 0.15174,2.35425c-0.47164,2.95333 -3.27783,4.96995 -6.2581,4.50817c-2.98617,-0.47297 -5.033,-3.26207 -4.56596,-6.21736c0.12285,-0.78958 0.85526,-1.32559 1.64811,-1.20209c0.78759,0.12349 1.32557,0.86183 1.20143,1.64811c-0.21743,1.38733 0.75279,2.69584 2.16508,2.91786c1.39717,0.22005 2.73721,-0.72388 2.95531,-2.10793c0.05846,-0.3685 0.03679,-0.73703 -0.06634,-1.09305c-0.22663,-0.76396 0.21415,-1.566 0.97678,-1.78934c0.13795,-0.0381 0.27261,-0.05649 0.4066,-0.05649z" fill="#ffd833" stroke-linecap="butt"/><path d="M232.17699,184.16384v0v0v0c0.62535,0 1.20012,0.40858 1.38469,1.03788c0.22663,0.76856 0.27589,1.56074 0.15109,2.35425c-0.46902,2.95333 -3.28243,4.96995 -6.2581,4.50817c-2.98486,-0.47297 -5.03169,-3.26207 -4.56596,-6.21736c0.12414,-0.78958 0.85659,-1.32559 1.64877,-1.20209c0.78759,0.12349 1.32492,0.86183 1.20209,1.64811c-0.21743,1.38733 0.75277,2.69584 2.16508,2.91786c1.40112,0.22005 2.73721,-0.72388 2.95596,-2.10793c0.05715,-0.3685 0.03481,-0.73703 -0.06765,-1.09305c-0.22598,-0.76396 0.21348,-1.566 0.97742,-1.78934c0.1373,-0.0381 0.27327,-0.05649 0.40662,-0.05649z" fill="#ffd833" stroke-linecap="butt"/></g></g></g></svg>