<svg version="1.1" xmlns="http://www.w3.org/2000/svg" xmlns:xlink="http://www.w3.org/1999/xlink" width="63.96718" height="42"><g transform="translate(-211.00502,-158.30014)"><g data-paper-data="{&quot;isPaintingLayer&quot;:true}" fill="#000000" fill-rule="nonzero" stroke="#000000" stroke-width="2" stroke-linecap="butt" stroke-linejoin="miter" stroke-miterlimit="10" stroke-dasharray="" stroke-dashoffset="0" font-family="none" font-weight="none" font-size="none" text-anchor="none" style="mix-blend-mode: normal"><path d="M224.46404,199.30011v-15.08196h37.04918v15.08196z" data-paper-data="{&quot;origPos&quot;:null}"/><path d="M239.546,185.69359c0,7.51469 -6.16526,13.60655 -13.77049,13.60655c-7.60524,0 -13.77049,-6.09186 -13.77049,-13.60655c0,-7.51469 6.16526,-13.60655 13.77049,-13.60655c7.60524,0 13.77049,6.09186 13.77049,13.60655z" data-paper-data="{&quot;origPos&quot;:null}"/><path d="M258.56239,174.70998c0,8.51062 -6.67904,15.40984 -14.91804,15.40984c-8.239,0 -14.91804,-6.89922 -14.91804,-15.40984c0,-8.51062 6.67904,-15.40984 14.91804,-15.40984c8.239,0 14.91804,6.89922 14.91804,15.40984z" data-paper-data="{&quot;origPos&quot;:null}"/><path d="M273.9722,185.69359c0,7.51469 -6.16526,13.60655 -13.77049,13.60655c-7.60524,0 -13.77049,-6.09186 -13.77049,-13.60655c0,-7.51469 6.16526,-13.60655 13.77049,-13.60655c7.60524,0 13.77049,6.09186 13.77049,13.60655z" data-paper-data="{&quot;origPos&quot;:null}"/></g></g></svg>