<svg version="1.1" xmlns="http://www.w3.org/2000/svg" xmlns:xlink="http://www.w3.org/1999/xlink" width="113.8" height="107.40749" viewBox="0,0,113.8,107.40749"><g transform="translate(-183.1,-126.29626)"><g data-paper-data="{&quot;isPaintingLayer&quot;:true}" fill-rule="nonzero" stroke-linejoin="miter" stroke-miterlimit="10" stroke-dasharray="" stroke-dashoffset="0" style="mix-blend-mode: normal"><g><path d="M296.9,196.40374c0,28.2 -25.5,37.3 -56.9,37.3c-31.4,0 -56.9,-9 -56.9,-37.3c0,-13.3 3.8,-28.4 11.9,-40.8l-6.7,-22.4c-1.3,-4.3 3,-8.2 7,-6.5l22.1,9.2c6.5,-2.9 14,-4.6 22.6,-4.6c8.4,0 15.9,1.7 22.4,4.7l22.3,-9.3c4,-1.6 8.3,2.3 7,6.5l-6.8,22.7c8.1,12.2 12,27.3 12,40.5z" fill="#ff7319" stroke="none" stroke-width="1" stroke-linecap="butt"/><path d="M284.5,214.20374c0,14.8 -20,19.5 -44.6,19.5c-24.6,0 -44.6,-4.7 -44.6,-19.5c0,-14.8 13.3,-34 44.6,-34c30.6,-0.1 44.6,19.2 44.6,34z" fill="#ffffff" stroke="none" stroke-width="1" stroke-linecap="butt"/><path d="M235,186.90374c0,-2 2.2,-2.6 5,-2.6c2.8,0 5,0.6 5,2.6c0,2 -1.5,4.5 -5,4.5c-3.5,0 -5,-2.5 -5,-4.5z" fill="#945600" stroke="#000000" stroke-width="1.5" stroke-linecap="butt"/><g fill="none" stroke="#000000" stroke-width="2.5" stroke-linecap="round"><path d="M256.9,193.40374c0,4.7 -3.8,8.4 -8.5,8.4c-4.7,0 -8.5,-3.8 -8.5,-8.4c0,-0.2 0,-0.2 0,-0.2c0,-0.3 0,-0.5 0,-0.5c0,0 0,0.2 0,0.5c0,0 0,0 0,0.2c0,4.7 -3.8,8.4 -8.5,8.4c-4.7,0 -8.5,-3.8 -8.5,-8.4"/></g><path d="M225.3,169.80374c0,-2.65097 2.14903,-4.8 4.8,-4.8c2.65097,0 4.8,2.14903 4.8,4.8c0,2.65097 -2.14903,4.8 -4.8,4.8c-2.65097,0 -4.8,-2.14903 -4.8,-4.8z" fill="#000000" stroke="none" stroke-width="1" stroke-linecap="butt"/><path d="M245,169.80374c0,-2.65097 2.14903,-4.8 4.8,-4.8c2.65097,0 4.8,2.14903 4.8,4.8c0,2.65097 -2.14903,4.8 -4.8,4.8c-2.65097,0 -4.8,-2.14903 -4.8,-4.8z" fill="#000000" stroke="none" stroke-width="1" stroke-linecap="butt"/><path d="M205.2,144.40374c-3.2,2.9 -5.9,5.5 -8.3,9.5l-6,-20.8c-0.4,-2.5 1.9,-4.6 4.4,-3.9l19.9,8.3c-4.5,1.8 -7.1,4.2 -10,6.9z" fill="#77500c" stroke="none" stroke-width="1" stroke-linecap="butt"/><path d="M265.2,137.50374l19.9,-8.3c2.5,-0.7 4.8,1.4 4.4,3.9l-6,20.8c-2.4,-4 -5.1,-6.6 -8.3,-9.5c-2.9,-2.7 -5.5,-5.1 -10,-6.9z" fill="#77500c" stroke="none" stroke-width="1" stroke-linecap="butt"/></g></g></g></svg>