<svg version="1.1" xmlns="http://www.w3.org/2000/svg" xmlns:xlink="http://www.w3.org/1999/xlink" width="34.75" height="34.75" viewBox="0,0,34.75,34.75"><g transform="translate(-222.625,-162.625)"><g data-paper-data="{&quot;isPaintingLayer&quot;:true}" fill="none" fill-rule="nonzero" stroke-width="2.5" stroke-miterlimit="10" stroke-dasharray="" stroke-dashoffset="0" style="mix-blend-mode: normal"><path d="M223.875,180c0,-8.90559 7.21941,-16.125 16.125,-16.125c8.90559,0 16.125,7.21941 16.125,16.125c0,8.90559 -7.21941,16.125 -16.125,16.125c-8.90559,0 -16.125,-7.21941 -16.125,-16.125z" stroke="#fafafa" stroke-linecap="butt" stroke-linejoin="miter"/><path d="M232,189v-2c0,-2.20914 1.79086,-4 4,-4h8c2.20914,0 4,1.79086 4,4v2" stroke="#ffffff" stroke-linecap="round" stroke-linejoin="round"/><path d="M236,175c0,-2.20914 1.79086,-4 4,-4c2.20914,0 4,1.79086 4,4c0,2.20914 -1.79086,4 -4,4c-2.20914,0 -4,-1.79086 -4,-4z" stroke="#ffffff" stroke-linecap="round" stroke-linejoin="round"/></g></g></svg>