<svg version="1.1" xmlns="http://www.w3.org/2000/svg" xmlns:xlink="http://www.w3.org/1999/xlink" width="264.13751" height="99.04223" viewBox="0,0,264.13751,99.04223"><g transform="translate(-107.93124,-130.47889)"><g data-paper-data="{&quot;isPaintingLayer&quot;:true}" fill-rule="nonzero" stroke="none" stroke-linecap="butt" stroke-linejoin="miter" stroke-miterlimit="10" stroke-dasharray="" stroke-dashoffset="0" style="mix-blend-mode: normal"><path d="M107.93124,204.44131c0,-16.39527 0,-36.45796 0,-45.89072c0,-10.12116 14.87248,-24.01258 25.61343,-24.01258c9.94197,0 195.78963,0 212.84085,0c14.18399,0 25.61343,14.2343 25.61343,24.01259c0,9.08657 0,29.5233 0,45.89072c0,14.84131 -12.45503,25.07981 -23.47897,25.07981c-16.79206,0 -200.71529,0 -211.77363,0c-11.71631,0 -28.8151,-11.23171 -28.8151,-25.07981z" fill="#d9d9d9" stroke-width="NaN"/><path d="M108.00104,200.3822c0,-16.39527 0,-36.45797 0,-45.89072c0,-10.12116 14.87248,-24.01258 25.61343,-24.01258c9.94197,0 195.78962,0 212.84085,0c14.18399,0 25.61343,14.2343 25.61343,24.01259c0,9.08657 0,29.5233 0,45.89072c0,14.84131 -12.45503,25.07981 -23.47897,25.07981c-16.79206,0 -200.71529,0 -211.77363,0c-11.71631,0 -28.8151,-11.23171 -28.8151,-25.07981z" fill="#ffffff" stroke-width="NaN"/><g fill="#7e7e7e"><path d="M130.87695,199.74937v-40.33839h60.4092v40.33839z" stroke-width="1"/><path d="M130.87696,169.24961v-15.93859h15.93859v15.93859z" stroke-width="0"/><text transform="translate(198.57731,187.24342) scale(0.62782,0.62782)" font-size="40" xml:space="preserve" fill="#7e7e7e" fill-rule="nonzero" stroke="none" stroke-width="1" stroke-linecap="butt" stroke-linejoin="miter" stroke-miterlimit="10" stroke-dasharray="" stroke-dashoffset="0" font-family="Sans Serif" font-weight="normal" text-anchor="start" style="mix-blend-mode: normal"><tspan x="0" dy="0">Take a photo</tspan></text></g><path d="M147.50424,179.58018c0,-7.49855 6.07876,-13.57731 13.57731,-13.57731c7.49855,0 13.57731,6.07877 13.57731,13.57731c0,7.49855 -6.07876,13.57731 -13.57731,13.57731c-7.49855,0 -13.57731,-6.07877 -13.57731,-13.57731z" fill="#ffffff" stroke-width="0"/></g></g></svg>