<svg version="1.1" xmlns="http://www.w3.org/2000/svg" xmlns:xlink="http://www.w3.org/1999/xlink" width="106.54711" height="89.78029" viewBox="0,0,106.54711,89.78029"><g transform="translate(-186.72644,-135.10985)"><g data-paper-data="{&quot;isPaintingLayer&quot;:true}" fill="none" fill-rule="nonzero" stroke="#ffffff" stroke-width="5" stroke-linecap="round" stroke-linejoin="round" stroke-miterlimit="10" stroke-dasharray="" stroke-dashoffset="0" style="mix-blend-mode: normal"><g><path d="M189.22644,222.39015v-9.42003c0,-10.40509 8.26621,-18.84007 18.46311,-18.84007h36.92622c10.1969,0 18.46311,8.43498 18.46311,18.84007v9.42003"/><path d="M207.68955,156.44992c0,-10.40509 8.26621,-18.84007 18.46311,-18.84007c10.1969,0 18.46311,8.43498 18.46311,18.84007c0,10.40509 -8.26621,18.84007 -18.46311,18.84007c-10.1969,0 -18.46311,-8.43498 -18.46311,-18.84007z"/><path d="M276.92622,194.74235c8.14685,2.14645 13.84106,9.64197 13.84733,18.22776v9.42003"/><path d="M258.46311,138.22216c8.16951,2.13444 13.88352,9.64607 13.88352,18.25131c0,8.60525 -5.71401,16.11688 -13.88352,18.25131"/></g></g></g></svg>