<svg version="1.1" xmlns="http://www.w3.org/2000/svg" xmlns:xlink="http://www.w3.org/1999/xlink" width="482" height="362" viewBox="0,0,482,362"><g transform="translate(1.5,1)"><g data-paper-data="{&quot;isPaintingLayer&quot;:true}" fill-rule="nonzero" stroke-miterlimit="10" stroke-dasharray="" stroke-dashoffset="0" style="mix-blend-mode: normal"><path d="M-1.5,361v-362h482v362z" fill-opacity="0.50196" fill="#000000" stroke="none" stroke-width="0" stroke-linecap="butt" stroke-linejoin="miter"/><path d="M415.11292,86.01396c4.30833,0 7.79743,3.48909 7.79743,7.79743c0,36.032 0,136.34522 0,172.37722c0,4.30833 -3.48909,7.79743 -7.79743,7.79743c-71.60318,0 -278.62263,0 -350.22581,0c-4.30833,0 -7.79743,-3.48909 -7.79743,-7.79743c0,-36.032 0,-136.34522 0,-172.37722c0,-4.30833 3.48909,-7.79743 7.79743,-7.79743c71.60318,0 278.62263,0 350.22581,0z" fill="#ffffff" stroke="#0fbd8c" stroke-width="2.5" stroke-linecap="butt" stroke-linejoin="miter"/><text transform="translate(96.4106,171.32522) scale(0.27572,0.27572)" font-size="40" xml:space="preserve" fill="#0fbd8c" fill-rule="nonzero" stroke="none" stroke-width="1" stroke-linecap="butt" stroke-linejoin="miter" stroke-miterlimit="10" stroke-dasharray="" stroke-dashoffset="0" font-family="Sans Serif" font-weight="normal" text-anchor="start" style="mix-blend-mode: normal"><tspan x="0" dy="0">Please enter the following code into the authenticator.</tspan></text><g><g fill="#0fbd8c" stroke="none" stroke-width="1" stroke-linecap="butt" stroke-linejoin="miter"><path d="M204.59674,113.68118c-1.7861,0 -3.20448,0.68292 -4.2026,2.04877c-0.99812,1.36584 -1.47091,3.25702 -1.47091,5.67351c0,5.04312 1.89117,7.56467 5.67351,7.56467c1.57597,0 3.51968,-0.42026 5.77857,-1.20825v3.99246c-1.83864,0.78798 -3.93994,1.15571 -6.19883,1.15571c-3.25701,0 -5.77856,-0.99811 -7.51214,-2.99435c-1.73357,-1.99623 -2.62663,-4.83298 -2.62663,-8.56279c0,-2.36396 0.42025,-4.41272 1.26078,-6.14629c0.84053,-1.7861 2.10129,-3.09942 3.67727,-4.045c1.57597,-0.94558 3.46714,-1.41837 5.62098,-1.41837c2.20637,0 4.41272,0.52532 6.61908,1.57597l-1.52344,3.8874c-0.84053,-0.42026 -1.68104,-0.73545 -2.52157,-1.05065c-0.89306,-0.3152 -1.68103,-0.47279 -2.57409,-0.47279z"/><path d="M219.56848,132.59285h-4.72792v-24.00732h4.72792z"/><path d="M240.16119,123.92501c0,2.78422 -0.73545,4.99058 -2.20637,6.56655c-1.4709,1.57597 -3.51967,2.36396 -6.19883,2.36396c-1.68104,0 -3.09941,-0.36773 -4.36019,-1.10318c-1.26078,-0.73546 -2.2589,-1.78609 -2.94182,-3.15194c-0.68292,-1.36584 -0.99811,-2.94182 -0.99811,-4.72792c0,-2.83675 0.73545,-4.99058 2.20637,-6.56655c1.4709,-1.57597 3.51967,-2.36396 6.19883,-2.36396c1.68104,0 3.09941,0.36773 4.3602,1.10318c1.26078,0.73546 2.25889,1.73356 2.94181,3.09941c0.63039,1.36584 0.99812,2.94182 0.99812,4.78045zM228.23633,123.92501c0,1.73357 0.26267,2.99435 0.84053,3.88741c0.57786,0.89306 1.4709,1.31331 2.73168,1.31331c1.26078,0 2.15383,-0.42025 2.73168,-1.31331c0.52533,-0.89306 0.84052,-2.15383 0.84052,-3.88741c0,-1.73357 -0.26266,-2.99435 -0.84052,-3.83486c-0.57786,-0.84052 -1.4709,-1.26078 -2.73168,-1.26078c-1.26078,0 -2.15383,0.42026 -2.73168,1.26078c-0.57786,0.84052 -0.84053,2.10129 -0.84053,3.83486z"/><path d="M256.28866,132.59285l-0.63039,-2.20636h-0.31519c-0.52533,0.78798 -1.20825,1.41837 -2.15383,1.83864c-0.94558,0.42026 -1.99624,0.63039 -3.15195,0.63039c-2.04877,0 -3.57221,-0.52533 -4.57032,-1.62851c-1.05065,-1.10318 -1.52344,-2.62662 -1.52344,-4.67538v-11.24195h4.72791v10.08622c0,1.26078 0.21014,2.15382 0.68293,2.78422c0.42026,0.63039 1.15571,0.94558 2.10129,0.94558c1.31331,0 2.2589,-0.42025 2.83676,-1.31331c0.57786,-0.89306 0.89305,-2.36396 0.89305,-4.36019v-8.14252h4.72792v17.23064h-3.67727z"/><path d="M270.26229,132.90805c-2.04877,0 -3.62474,-0.78798 -4.78045,-2.36396c-1.15571,-1.57597 -1.73356,-3.7298 -1.73356,-6.56656c0,-2.83675 0.57786,-5.04311 1.7861,-6.61908c1.15571,-1.57597 2.78421,-2.36396 4.88551,-2.36396c2.15382,0 3.83486,0.84052 4.99058,2.52156h0.1576c-0.26267,-1.26078 -0.36773,-2.41649 -0.36773,-3.46714v-5.46337h4.72792v24.00732h-3.62474l-0.89306,-2.25889h-0.21013c-1.05065,1.68104 -2.73169,2.57409 -4.93805,2.57409zM271.89079,129.12571c1.20825,0 2.10129,-0.36773 2.62662,-1.05065c0.52533,-0.68292 0.89305,-1.89117 0.89305,-3.57221v-0.52532c0,-1.83864 -0.26266,-3.20448 -0.84052,-3.99246c-0.57786,-0.78799 -1.52344,-1.20825 -2.78421,-1.20825c-1.05065,0 -1.89117,0.42025 -2.46902,1.31331c-0.57786,0.89306 -0.89306,2.20637 -0.89306,3.88741c0,1.68104 0.3152,2.99435 0.89306,3.83486c0.68292,0.89305 1.52344,1.31331 2.57409,1.31331z"/><path d="M285.23403,132.59285v-22.58895h4.78045v18.59649h9.14065v3.93993h-13.9211z"/><path d="M302.51722,110.84442c0,-1.52344 0.84052,-2.31142 2.57409,-2.31142c1.73357,0 2.57409,0.78798 2.57409,2.31142c0,0.73546 -0.21013,1.31332 -0.63039,1.68104c-0.42026,0.42026 -1.05065,0.63039 -1.9437,0.63039c-1.7861,0 -2.57409,-0.73546 -2.57409,-2.31143zM307.35019,132.59285h-4.72791v-17.23064h4.72791z"/><path d="M328.25811,132.59285h-4.72792v-10.08622c0,-1.26078 -0.21013,-2.15382 -0.68292,-2.78422c-0.42026,-0.63039 -1.15571,-0.94558 -2.10129,-0.94558c-1.31331,0 -2.25889,0.42025 -2.83675,1.31331c-0.57786,0.89306 -0.89306,2.36396 -0.89306,4.36019v8.14252h-4.72792v-17.23064h3.57221l0.63039,2.20636h0.26266c0.52533,-0.84052 1.26078,-1.47091 2.15383,-1.89117c0.94558,-0.42026 1.9437,-0.63039 3.15194,-0.63039c1.99624,0 3.51967,0.52532 4.57032,1.6285c1.05065,1.10318 1.57598,2.62663 1.57598,4.67539z"/><path d="M337.60888,123.18955l2.04877,-2.62662l4.83298,-5.25325h5.30578l-6.82921,7.4596l7.24948,9.77103h-5.41084l-4.99059,-6.98682l-1.99623,1.62851v5.35831h-4.72792v-23.9548h4.72792v10.71662l-0.26266,3.93993h0.05253v-0.05253z"/></g><g fill="none" stroke="#0fbd8c" stroke-width="7.5" stroke-linecap="round" stroke-linejoin="round"><path d="M138.55624,120.95692c10.03369,-9.61344 24.48012,-9.61344 34.51381,0"/><path d="M129.78333,110.76563c14.81414,-15.12934 36.98284,-15.12934 51.79699,0"/><path d="M147.22409,130.99062c5.09564,-4.30766 11.9774,-4.30766 17.07305,0"/><path d="M155.68183,142.02243v0"/></g></g><text transform="translate(115.84634,255.30448) scale(0.36136,0.36136)" font-size="40" xml:space="preserve" fill="#0fbd8c" fill-rule="nonzero" stroke="none" stroke-width="1" stroke-linecap="butt" stroke-linejoin="miter" stroke-miterlimit="10" stroke-dasharray="" stroke-dashoffset="0" font-family="Sans Serif" font-weight="normal" text-anchor="start" style="mix-blend-mode: normal"><tspan x="0" dy="0">scratch.mit.edu/projects/546140249</tspan></text><text transform="translate(155.09481,349.16365) scale(0.27572,0.27572)" font-size="40" xml:space="preserve" fill="#ffffff" fill-rule="nonzero" stroke="none" stroke-width="1" stroke-linecap="butt" stroke-linejoin="miter" stroke-miterlimit="10" stroke-dasharray="" stroke-dashoffset="0" font-family="Sans Serif" font-weight="normal" text-anchor="start" style="mix-blend-mode: normal"><tspan x="0" dy="0">2-Factor Authentication 2.0 Beta</tspan></text></g></g></svg>