<svg version="1.1" xmlns="http://www.w3.org/2000/svg" xmlns:xlink="http://www.w3.org/1999/xlink" width="73.8" height="69.7586" viewBox="0,0,73.8,69.7586"><g transform="translate(-203.25179,-169.1914)"><g data-paper-data="{&quot;isPaintingLayer&quot;:true}" fill-rule="nonzero" stroke-linejoin="miter" stroke-miterlimit="10" stroke-dasharray="" stroke-dashoffset="0" style="mix-blend-mode: normal"><path d="M277.0518,214.65001c0,18.3 -16.5,24.2 -36.9,24.2c-20.4,0 -36.9,-5.9 -36.9,-24.2c0,-8.6 2.4,-18.5 7.7,-26.5l-4.3,-14.5c-0.8,-2.7 2,-5.3 4.6,-4.2l14.3,6c4.2,-1.9 9,-3 14.6,-3c5.5,0 10.3,1.2 14.5,3.1l14.4,-6c2.6,-1.1 5.4,1.5 4.6,4.2l-4.4,14.7c5.2,7.9 7.7,17.7 7.8,26.2z" fill="#ff7319" stroke="none" stroke-width="1" stroke-linecap="butt"/><path d="M268.9518,226.25001c0,9.6 -12.9,12.7 -28.9,12.7c-16,0 -28.9,-3.1 -28.9,-12.7c0,-9.6 8.6,-22.1 28.9,-22.1c19.9,0 28.9,12.5 28.9,22.1z" fill="#ffffff" stroke="none" stroke-width="1" stroke-linecap="butt"/><path d="M236.8518,208.55001c0,-1.3 1.4,-1.7 3.2,-1.7c1.8,0 3.2,0.4 3.2,1.7c0,1.3 -1,2.9 -3.2,2.9c-2.2,0 -3.2,-1.6 -3.2,-2.9z" fill="#945600" stroke="#000000" stroke-width="1.5" stroke-linecap="butt"/><path d="M234.5518,218.15001c3,0 5.5,-2.5 5.5,-5.5c0,-0.2 0,-0.2 0,-0.2c0,-0.2 0,-0.3 0,-0.3c0,0 0,0.1 0,0.3c0,0 0,0 0,0.2c0,3.1 2.5,5.5 5.5,5.5" fill="none" stroke="#000000" stroke-width="2.5" stroke-linecap="round"/><path d="M230.68395,197.55001c0,-1.71208 1.38792,-3.1 3.1,-3.1c1.71208,0 3.1,1.38792 3.1,3.1c0,1.71208 -1.38792,3.1 -3.1,3.1c-1.71208,0 -3.1,-1.38792 -3.1,-3.1z" fill="#000000" stroke="none" stroke-width="1" stroke-linecap="butt"/><path d="M243.48395,197.55001c0,-1.71208 1.38792,-3.1 3.1,-3.1c1.71208,0 3.1,1.38792 3.1,3.1c0,1.71208 -1.38792,3.1 -3.1,3.1c-1.71208,0 -3.1,-1.38792 -3.1,-3.1z" fill="#000000" stroke="none" stroke-width="1" stroke-linecap="butt"/><path d="M217.6518,180.95001c-2.1,1.8 -3.8,3.5 -5.4,6.1l-3.9,-13.5c-0.3,-1.6 1.2,-3 2.8,-2.5l12.9,5.4c-2.9,1.2 -4.6,2.8 -6.4,4.5z" fill="#77500c" stroke="none" stroke-width="1" stroke-linecap="butt"/><path d="M256.4518,176.45001l12.9,-5.4c1.6,-0.5 3.1,0.9 2.8,2.5l-3.8,13.5c-1.5,-2.6 -3.3,-4.3 -5.3,-6.1c-2,-1.7 -3.7,-3.3 -6.6,-4.5z" fill="#77500c" stroke="none" stroke-width="1" stroke-linecap="butt"/><path d="M229.88819,196.80908c3,0 5.5,-2.5 5.5,-5.5c0,-0.2 0,-0.2 0,-0.2c0,-0.2 0,-0.3 0,-0.3c0,0 0,0.1 0,0.3c0,0 0,0 0,0.2" fill="none" stroke="#000000" stroke-width="2.5" stroke-linecap="round"/><path d="M250.3982,196.63724c-3,0 -5.5,-2.5 -5.5,-5.5c0,-0.2 0,-0.2 0,-0.2c0,-0.2 0,-0.3 0,-0.3c0,0 0,0.1 0,0.3c0,0 0,0 0,0.2" data-paper-data="{&quot;index&quot;:null}" fill="none" stroke="#000000" stroke-width="2.5" stroke-linecap="round"/></g></g></svg>