<svg version="1.1" xmlns="http://www.w3.org/2000/svg" xmlns:xlink="http://www.w3.org/1999/xlink" width="482" height="362" viewBox="0,0,482,362"><g transform="translate(1.5,1)"><g data-paper-data="{&quot;isPaintingLayer&quot;:true}" fill-rule="nonzero" stroke-linecap="butt" stroke-linejoin="miter" stroke-miterlimit="10" stroke-dasharray="" stroke-dashoffset="0" style="mix-blend-mode: normal"><path d="M-1.5,361v-362h482v362z" fill-opacity="0.50196" fill="#000000" stroke="none" stroke-width="0"/><path d="M415.11292,86.01396c4.30833,0 7.79743,3.48909 7.79743,7.79743c0,36.032 0,136.34522 0,172.37722c0,4.30833 -3.48909,7.79743 -7.79743,7.79743c-71.60318,0 -278.62263,0 -350.22581,0c-4.30833,0 -7.79743,-3.48909 -7.79743,-7.79743c0,-36.032 0,-136.34522 0,-172.37722c0,-4.30833 3.48909,-7.79743 7.79743,-7.79743c71.60318,0 278.62263,0 350.22581,0z" fill="#ffffff" stroke="#0fbd8c" stroke-width="2.5"/><text transform="translate(119.97539,185.4714) scale(0.45595,0.45595)" font-size="40" xml:space="preserve" fill="#0fbd8c" fill-rule="nonzero" stroke="none" stroke-width="1" stroke-linecap="butt" stroke-linejoin="miter" stroke-miterlimit="10" stroke-dasharray="" stroke-dashoffset="0" font-family="Sans Serif" font-weight="normal" text-anchor="start" style="mix-blend-mode: normal"><tspan x="0" dy="0">Failed to get session token!</tspan></text></g></g></svg>