<svg version="1.1" xmlns="http://www.w3.org/2000/svg" xmlns:xlink="http://www.w3.org/1999/xlink" width="124.66706" height="80.31301" viewBox="0,0,124.66706,80.31301"><g transform="translate(-177.44275,-148.55403)"><g data-paper-data="{&quot;isPaintingLayer&quot;:true}" fill-rule="nonzero" stroke-linecap="butt" stroke-linejoin="miter" stroke-miterlimit="10" stroke-dasharray="" stroke-dashoffset="0" style="mix-blend-mode: normal"><g fill="#00cccc" stroke="#ffffff" stroke-width="9"><path d="M290.64039,191.19671c-1.20107,0 -2.96908,-0.37888 -4.57167,-2.18311c-0.02647,-0.02995 -0.05258,-0.0599 -0.07905,-0.09019c-0.48892,0.27894 -1.03948,0.48126 -1.63916,0.5927c-0.6021,0.11213 -1.48732,0.27128 -2.65148,0.47535c-1.19097,0.23158 -2.0755,0.33953 -2.78033,0.33953c-2.3708,0 -3.70942,-1.03775 -4.41531,-1.90834c-0.47848,-0.58992 -0.77065,-1.30937 -0.83926,-2.06574c-0.19606,-2.16047 0.91447,-4.02493 2.79809,-4.90528c-0.02751,-0.40013 -0.05885,-0.85353 -0.09472,-1.36613c-0.60419,-0.56659 -1.04958,-1.29197 -1.28639,-2.12565c-0.09681,-0.34058 -0.14592,-0.69299 -0.14592,-1.04714v-0.09229c0,-0.43391 0.07348,-0.85701 0.21068,-1.254c0.09995,-0.39107 0.26117,-0.76508 0.47917,-1.10774c0.11317,-0.17795 0.23436,-0.34649 0.36286,-0.50599c-0.00279,-0.03064 -0.00557,-0.06164 -0.00766,-0.09228c-0.62126,-0.23298 -1.26167,-0.60558 -1.81397,-1.20211c-0.83751,-0.90541 -1.24599,-2.08839 -1.14953,-3.33194c0.23019,-2.76849 2.49617,-4.0702 4.43272,-4.37038c0.83159,-0.15949 2.35131,-0.38654 4.63644,-0.69264c0.35833,-0.04771 0.71215,-0.04492 1.05377,0.00418c0.21626,0.00975 0.69578,0.02786 1.73039,0.05503c0.0679,0.00174 0.13616,0.00558 0.20372,0.0108c2.47701,0.19711 4.22482,0.66165 5.49972,1.46225c0.02368,0.01463 0.04701,0.0296 0.07034,0.04492c1.50299,0.99004 2.5773,2.39484 3.10663,4.06289c0.00383,0.01253 0.00766,0.02472 0.01149,0.03726c0.22287,0.72816 0.29391,1.53607 0.22287,2.53831c-0.05223,1.13143 -0.29983,2.06052 -0.75568,2.83292c-0.26431,0.46803 -0.5826,0.90855 -0.95661,1.32366c0.31898,0.90855 0.55126,1.93968 0.7024,3.10941c0.14278,-0.0108 0.28695,-0.01637 0.43251,-0.01637c2.04764,0 3.78639,1.24322 4.42958,3.16757c0.02543,0.07696 0.04876,0.15392 0.0693,0.23228c0.52584,1.98113 -0.4656,3.71152 -0.7912,4.28019c-0.65992,1.15336 -1.42151,2.00933 -2.32693,2.61387c-0.9385,0.62683 -2.11729,1.00222 -3.60287,1.14779c-0.19814,0.01881 -0.37261,0.02647 -0.54498,0.02647z"/><path d="M280.35285,190.03124c0.296,1.32679 0.00348,2.33667 -0.36565,3.01225c-0.94373,1.80039 -2.67795,2.87296 -4.6629,2.87296c-0.37958,0 -0.77657,-0.03831 -1.2049,-0.12188h-1.55663c-0.40744,0 -1.17356,-0.02438 -3.0819,-0.23681c-1.13178,-0.12885 -2.08943,-0.19154 -2.84162,-0.19154h-1.89441c-0.04875,0.00348 -0.21939,0.01393 -0.62683,0.05572c-0.63727,0.06616 -1.12132,0.0975 -1.52876,0.0975c-1.18401,0 -2.24265,-0.24376 -3.14459,-0.72085c-0.0592,-0.03134 -0.11492,-0.06616 -0.17412,-0.0975c-0.60594,-0.36565 -2.01629,-1.45564 -2.01629,-3.74704c0,-1.23624 0.45968,-2.37846 1.29196,-3.21771c0.40395,-0.41092 0.8706,-0.74523 1.38251,-0.99945c-1.15267,-1.26062 -1.50091,-3.04708 -0.87756,-4.73604c0.24376,-0.64424 0.60245,-1.20838 1.06212,-1.68547c-2.08943,-0.70344 -3.09583,-2.469 -3.162,-4.17537c-0.1776,-1.31286 0.33431,-2.64661 1.39643,-3.49979c1.05168,-0.84622 2.31927,-1.34072 3.66347,-1.43822c0.08706,-0.00348 0.1776,-0.00696 0.26814,-0.00696h1.06909c2.30185,-0.04179 6.20908,-0.60941 11.61025,-1.68895c0.69648,-0.15671 1.41733,-0.12885 2.18345,0.09054c0.3552,0.10099 1.15963,0.33431 1.88048,1.04124c0.15323,0.14975 0.28903,0.30993 0.41441,0.48056c0.48056,0.66166 0.81139,1.40688 0.98551,2.21479c0.07313,0.35172 0.09751,0.70692 0.07313,1.06213c-0.04179,0.65816 -0.01741,1.38598 0.07313,2.16255c0.11492,0.94024 -0.12537,1.89093 -0.66862,2.66402c-0.83228,1.17704 -2.10336,1.92227 -3.56595,2.10336c0.00348,0.06269 0.00696,0.12885 0.00696,0.19154v0.296c1.07605,0.10099 2.06505,0.55718 2.82073,1.30937c1.24321,1.25017 1.25366,2.79635 1.19794,3.59382c0.06269,0.41788 0.08357,0.68951 0.08357,0.95766c0,0.32386 -0.03134,0.67906 -0.10099,1.15963c-0.00696,0.05223 -0.01393,0.09403 -0.02089,0.13582v0.92979c0.01045,0.04527 0.02089,0.08706 0.03134,0.13233z"/><path d="M228.23863,189.39066c0.30178,1.35267 0.00356,2.38226 -0.37278,3.07101c-0.96214,1.83551 -2.73019,2.92901 -4.75387,2.92901c-0.38698,0 -0.79172,-0.03905 -1.2284,-0.12426h-1.58699c-0.41539,0 -1.19645,-0.02485 -3.14203,-0.24142c-1.15386,-0.13135 -2.13019,-0.19527 -2.89706,-0.19527h-1.93137c-0.04971,0.00356 -0.22367,0.01421 -0.63905,0.05681c-0.6497,0.06745 -1.1432,0.09941 -1.55859,0.09941c-1.2071,0 -2.2864,-0.24853 -3.20593,-0.73492c-0.06035,-0.03195 -0.11716,-0.06745 -0.17751,-0.0994c-0.61775,-0.37278 -2.05563,-1.48403 -2.05563,-3.82014c0,-1.26036 0.46864,-2.42486 1.31717,-3.28048c0.41184,-0.41894 0.88757,-0.75977 1.40947,-1.01895c-1.17515,-1.28522 -1.53018,-3.10652 -0.89467,-4.82842c0.24852,-0.6568 0.6142,-1.23196 1.08284,-1.71834c-2.13018,-0.71717 -3.15622,-2.51717 -3.22368,-4.25682c-0.18106,-1.33847 0.34083,-2.69823 1.42367,-3.56806c1.0722,-0.86273 2.36451,-1.36687 3.73493,-1.46628c0.08876,-0.00355 0.18106,-0.0071 0.27337,-0.0071h1.08994c2.34675,-0.04261 6.3302,-0.62131 11.83673,-1.7219c0.71007,-0.15977 1.44497,-0.13135 2.22604,0.09231c0.36213,0.10296 1.18225,0.34083 1.91716,1.06154c0.15621,0.15266 0.29468,0.31598 0.42249,0.48994c0.48994,0.67456 0.82722,1.43432 1.00474,2.258c0.07456,0.35858 0.0994,0.72071 0.07456,1.08285c-0.04261,0.67101 -0.01775,1.41302 0.07456,2.20474c0.11716,0.95858 -0.12781,1.92782 -0.68165,2.71599c-0.84853,1.20001 -2.14439,1.95977 -3.63552,2.14439c0.00355,0.0639 0.00709,0.13135 0.00709,0.19526v0.30177c1.09705,0.10296 2.10533,0.56805 2.87575,1.33492c1.26746,1.27456 1.27811,2.8509 1.22131,3.66392c0.06391,0.42604 0.08521,0.70297 0.08521,0.97634c0,0.33018 -0.03195,0.69231 -0.10296,1.18225c-0.0071,0.05325 -0.0142,0.09586 -0.0213,0.13846v0.94794c0.01066,0.04615 0.0213,0.08876 0.03196,0.13491z"/><path d="M204.19214,185.98213v-13.70817h14.45931v13.70817z"/><path d="M242.40965,175.9607v1.68547c0,0.99945 -0.17412,2.42025 -0.54673,4.47137c-0.15323,0.95417 -0.44575,1.93621 -0.86711,2.92172c-0.00696,0.01393 -0.01394,0.02438 -0.01741,0.03831c-0.74871,1.68896 -1.98147,3.16199 -3.66694,4.37735c-1.7969,1.29197 -3.6565,1.94665 -5.5335,1.94665c-0.75916,0 -1.4835,-0.1184 -2.16256,-0.34824c-2.40633,-0.77657 -4.3077,-2.2531 -5.64842,-4.38779c-0.28904,-0.47012 -0.57459,-1.05168 -0.92979,-1.90138c-0.00697,-0.02089 -0.01393,-0.0383 -0.02437,-0.0592c-0.43878,-1.10043 -0.6721,-1.98148 -0.73479,-2.77545c-0.01044,-0.13581 -0.04875,-0.46316 -0.17412,-1.10391c-0.04527,-0.24029 -0.06965,-0.48405 -0.06965,-0.72782v-1.49046c-0.15322,-0.58852 -0.16716,-1.21883 -0.01741,-1.84217c0.05571,-0.24029 0.13581,-0.4736 0.23332,-0.68951c0,-0.42485 0.07313,-0.84971 0.21242,-1.25366c0.03831,-0.17412 0.09054,-0.34475 0.15322,-0.51539c0.00348,-0.00348 0.06617,-0.18109 0.15323,-0.6721c0.10448,-0.60245 0.29948,-1.37902 0.592,-2.35757c0.00348,-0.01044 0.00696,-0.02438 0.01044,-0.03483c0.56762,-1.82477 1.71334,-3.55551 3.50328,-5.28973c0.01393,-0.01393 0.02438,-0.02437 0.03831,-0.03482c0.90541,-0.85666 1.95013,-1.39992 3.10628,-1.62279c0.20894,-0.03831 0.42136,-0.0592 0.63727,-0.06616c0.13233,-0.00348 0.48405,-0.02437 1.05864,-0.05571c0.02089,0 0.04179,-0.00348 0.06268,-0.00348c1.69592,-0.06965 3.3013,0.29252 4.78827,1.06909c1.71681,0.87756 3.07493,2.19738 4.03956,3.92464c0.45619,0.81836 0.84622,1.81083 1.19445,3.04359c0.40744,1.39643 0.60941,2.62571 0.60941,3.754z"/><path d="M212.15944,186.08681c0,0.26982 -0.0284,0.5361 -0.0852,0.79882c-0.01775,0.11716 -0.06036,0.36568 -0.12427,0.74912c-0.13846,0.83077 -0.54319,1.59764 -1.15386,2.17988c-0.91953,0.88048 -2.05208,1.45918 -3.31244,1.70415c-0.23077,0.12426 -0.53255,0.28402 -0.92663,0.50059c-0.33018,0.17751 -0.68166,0.30533 -1.04734,0.38343c-0.03551,0.01065 -0.21302,0.04971 -0.6497,0.18107c-0.53254,0.26982 -1.23196,0.58226 -2.15859,0.95858c-0.15977,0.06745 -0.32307,0.12072 -0.48994,0.16331c-0.45799,0.12072 -0.91953,0.18107 -1.37042,0.18107c-1.44143,0 -2.75149,-0.59646 -3.69232,-1.68285c-0.18107,-0.20947 -0.33728,-0.43668 -0.47219,-0.67811c-0.17042,-0.07456 -0.33373,-0.15621 -0.49705,-0.24852c-0.22012,0.07811 -0.44733,0.15266 -0.6781,0.21301c-0.22722,0.05681 -0.45799,0.09586 -0.68876,0.11361c-0.23432,0.01775 -0.58934,0.05325 -1.06154,0.1065c-0.85207,0.12072 -1.76806,0.28048 -2.73374,0.47929c-0.66036,0.24497 -1.51599,0.51835 -2.59883,0.83433c-0.12427,0.03551 -0.25207,0.06391 -0.37988,0.08876c-0.69941,0.12781 -1.44852,0.12072 -2.22959,-0.03195c-2.34321,-0.41539 -3.24498,-1.94557 -3.57162,-2.81185c-0.15266,-0.40474 -0.29468,-0.96924 -0.29468,-1.66155c0,-0.35858 0.03905,-0.75266 0.13491,-1.17515c0.41894,-1.92427 2.04142,-2.8083 2.85444,-3.24499c0.35149,-0.19526 0.68876,-0.35503 1.01894,-0.48994c0.07811,-1.02249 0.18816,-3.05326 0.31598,-7.07221v-0.36214c-2.10534,-0.36213 -3.70652,-1.87456 -4.13611,-3.9941c-0.20592,-0.97633 -0.05681,-1.99173 0.42959,-2.89706c0.72782,-1.42012 2.09468,-2.36805 3.77753,-2.60947c0.10296,-0.0142 0.20947,-0.02485 0.31598,-0.03195c0.30177,-0.01775 0.6213,-0.04261 0.95148,-0.071c0.36923,-0.03196 0.96924,-0.07811 1.80001,-0.14201c0.05681,-0.0071 0.11716,-0.0071 0.17396,-0.01065c0.01065,0 0.0213,-0.00355 0.03195,-0.00355c1.24261,-0.33018 2.56687,-0.20947 3.79883,0.35148c0.49705,0.22367 0.94083,0.55385 1.30297,0.96214c0.42959,0.47929 0.81656,1.11124 1.38817,2.2509c0.03195,0.06746 0.0639,0.13491 0.0923,0.20237c0.08521,0.19526 0.17397,0.40474 0.27338,0.62841c0.0071,-0.08876 0.0142,-0.18462 0.0213,-0.28402c0.00356,-0.03905 0.0071,-0.08166 0.01065,-0.12071c0.25917,-2.3929 2.10178,-4.15385 4.69707,-4.48759c0.21657,-0.0284 0.43669,-0.03905 0.65326,-0.02841c0.46509,0.01775 1.19646,0.0142 2.14084,-0.00355h0.0781c0.32663,0 0.97633,-0.0142 2.2154,-0.08166c1.2071,-0.11716 2.40356,0.20237 3.4083,0.89823c1.33136,0.91953 2.09113,2.36451 2.09113,3.96215c0,1.7006 -0.90888,3.24499 -2.42842,4.12902c-0.65326,0.37989 -1.34911,0.63195 -2.07338,0.75621c0.0639,0.46509 0.14201,1.0012 0.23432,1.59765c0.29112,1.6367 0.52545,3.12427 0.69587,4.43789c1.85325,0.32308 3.66747,1.60474 3.92309,3.99055v0.00356c0.01775,0.13846 0.02485,0.28047 0.02485,0.41894z"/><path d="M265.41314,169.41511c0,2.26355 -1.34768,4.07786 -3.44059,4.62459c-0.06616,0.01741 -0.13581,0.03482 -0.20198,0.05223c-0.06964,0.55718 -0.15671,1.16311 -0.2577,1.82477l-0.51191,3.62167c-0.1776,1.42081 -0.63727,4.14751 -1.40688,8.33682c-0.00348,0.01393 -0.00696,0.02437 -0.00696,0.0383c-0.19849,1.02034 -0.296,1.4034 -0.44575,1.78646c-0.00696,0.01741 -0.01393,0.03134 -0.0209,0.04527c-0.50843,1.23624 -1.4417,2.20435 -2.69536,2.79983c-0.51539,0.24029 -1.07606,0.36565 -1.6402,0.36565c-0.10796,0 -0.21242,-0.00348 -0.32037,-0.01045c-0.25073,-0.02089 -0.4945,-0.04527 -0.72782,-0.06616c-0.04527,-0.00348 -0.09054,-0.00696 -0.13581,-0.01393c-1.50438,-0.18805 -2.44463,-0.86711 -2.98788,-1.45216c-0.15323,-0.16367 -0.296,-0.3343 -0.42833,-0.51887c-0.30993,0.2751 -0.61987,0.48056 -0.90542,0.63727c-0.33083,0.18457 -0.68952,0.31689 -1.06212,0.39351c-0.40048,0.08358 -0.97855,0.20198 -1.73771,0.34824c-0.69299,0.13581 -1.41384,0.07661 -2.0755,-0.17064c-0.68603,-0.2577 -1.32331,-0.68603 -1.94665,-1.30938c-0.43878,-0.43878 -0.76612,-0.97855 -0.95069,-1.57403c-0.65816,-2.12425 -1.50787,-5.24446 -2.59785,-9.53475c-0.00696,-0.03831 -0.01741,-0.07312 -0.02438,-0.11144c-0.11492,-0.51191 -0.29252,-1.27107 -0.5328,-2.27051c-0.16367,-0.50494 -0.36914,-1.1457 -0.6129,-1.92576c-1.25714,-0.30645 -2.12425,-0.96113 -2.68143,-1.53921c-0.52933,-0.54673 -1.15963,-1.48001 -1.27455,-2.90082c-0.01045,-0.10099 -0.01393,-0.20546 -0.01393,-0.30993c0,-1.17356 0.38306,-2.24265 1.10391,-3.09932c0.7522,-0.91239 1.57055,-1.49046 2.50383,-1.76557c0.7522,-0.24029 1.62279,-0.3761 2.65008,-0.40396c0.5328,-0.01393 1.06561,-0.01044 1.58449,-0.02437c0.46316,-0.0592 1.07605,-0.13582 1.84566,-0.22635c0.10796,-0.01393 0.21939,-0.02089 0.33082,-0.02437c0.14626,-0.00697 0.28904,-0.00697 0.42137,-0.00697c0.91935,0 1.65761,0.10099 2.31926,0.32386c0.02089,0.00348 0.03831,0.01044 0.05921,0.01741c0.33779,0.1184 0.65469,0.27163 0.9472,0.44923c0.31342,-0.1184 0.64075,-0.20894 0.98551,-0.27163c0.12885,-0.0209 0.2577,-0.03831 0.39002,-0.04527c0.61638,-0.04527 1.23276,0.01044 1.83521,0.16018c0.93676,-1.00989 2.274,-1.581 3.79232,-1.581c0.42137,0 0.90891,0.05571 1.63323,0.18108c0.03482,0.00348 0.06964,0.01044 0.10099,0.01741c0.00348,0 0.00348,0 0.00348,0c0.45968,-0.03134 0.97855,-0.01044 1.76208,0.0592c0.55718,0.04179 1.12132,0.0801 1.69243,0.1184c1.08651,0.06616 2.0163,0.25421 2.81377,0.57111c0.06964,0.02786 0.13581,0.05571 0.20198,0.08706c1.67154,0.78005 2.6675,2.38891 2.6675,4.29726z"/></g><g fill="#6143a6" stroke="none"><path d="M290.64039,191.19671c-1.20107,0 -2.96908,-0.37888 -4.57167,-2.18311c-0.02647,-0.02995 -0.05258,-0.0599 -0.07905,-0.09019c-0.48892,0.27894 -1.03948,0.48126 -1.63916,0.5927c-0.6021,0.11213 -1.48732,0.27128 -2.65148,0.47535c-1.19097,0.23158 -2.0755,0.33953 -2.78033,0.33953c-2.3708,0 -3.70942,-1.03775 -4.41531,-1.90834c-0.47848,-0.58992 -0.77065,-1.30937 -0.83926,-2.06574c-0.19606,-2.16047 0.91447,-4.02493 2.79809,-4.90528c-0.02751,-0.40013 -0.05885,-0.85353 -0.09472,-1.36613c-0.60419,-0.56659 -1.04958,-1.29197 -1.28639,-2.12565c-0.09681,-0.34058 -0.14592,-0.69299 -0.14592,-1.04714v-0.09229c0,-0.43391 0.07348,-0.85701 0.21068,-1.254c0.09995,-0.39107 0.26117,-0.76508 0.47917,-1.10774c0.11317,-0.17795 0.23436,-0.34649 0.36286,-0.50599c-0.00279,-0.03064 -0.00557,-0.06164 -0.00766,-0.09228c-0.62126,-0.23298 -1.26167,-0.60558 -1.81397,-1.20211c-0.83751,-0.90541 -1.24599,-2.08839 -1.14953,-3.33194c0.23019,-2.76849 2.49617,-4.0702 4.43272,-4.37038c0.83159,-0.15949 2.35131,-0.38654 4.63644,-0.69264c0.35833,-0.04771 0.71215,-0.04492 1.05377,0.00418c0.21626,0.00975 0.69578,0.02786 1.73039,0.05503c0.0679,0.00174 0.13616,0.00558 0.20372,0.0108c2.47701,0.19711 4.22482,0.66165 5.49972,1.46225c0.02368,0.01463 0.04701,0.0296 0.07034,0.04492c1.50299,0.99004 2.5773,2.39484 3.10663,4.06289c0.00383,0.01253 0.00766,0.02472 0.01149,0.03726c0.22287,0.72816 0.29391,1.53607 0.22287,2.53831c-0.05223,1.13143 -0.29983,2.06052 -0.75568,2.83292c-0.26431,0.46803 -0.5826,0.90855 -0.95661,1.32366c0.31898,0.90855 0.55126,1.93968 0.7024,3.10941c0.14278,-0.0108 0.28695,-0.01637 0.43251,-0.01637c2.04764,0 3.78639,1.24322 4.42958,3.16757c0.02543,0.07696 0.04876,0.15392 0.0693,0.23228c0.52584,1.98113 -0.4656,3.71152 -0.7912,4.28019c-0.65992,1.15336 -1.42151,2.00933 -2.32693,2.61387c-0.9385,0.62683 -2.11729,1.00222 -3.60287,1.14779c-0.19814,0.01881 -0.37261,0.02647 -0.54498,0.02647z" stroke-width="1"/><path d="M280.35285,190.03124c0.296,1.32679 0.00348,2.33667 -0.36565,3.01225c-0.94373,1.80039 -2.67795,2.87296 -4.6629,2.87296c-0.37958,0 -0.77657,-0.03831 -1.2049,-0.12188h-1.55663c-0.40744,0 -1.17356,-0.02438 -3.0819,-0.23681c-1.13178,-0.12885 -2.08943,-0.19154 -2.84162,-0.19154h-1.89441c-0.04875,0.00348 -0.21939,0.01393 -0.62683,0.05572c-0.63727,0.06616 -1.12132,0.0975 -1.52876,0.0975c-1.18401,0 -2.24265,-0.24376 -3.14459,-0.72085c-0.0592,-0.03134 -0.11492,-0.06616 -0.17412,-0.0975c-0.60594,-0.36565 -2.01629,-1.45564 -2.01629,-3.74704c0,-1.23624 0.45968,-2.37846 1.29196,-3.21771c0.40395,-0.41092 0.8706,-0.74523 1.38251,-0.99945c-1.15267,-1.26062 -1.50091,-3.04708 -0.87756,-4.73604c0.24376,-0.64424 0.60245,-1.20838 1.06212,-1.68547c-2.08943,-0.70344 -3.09583,-2.469 -3.162,-4.17537c-0.1776,-1.31286 0.33431,-2.64661 1.39643,-3.49979c1.05168,-0.84622 2.31927,-1.34072 3.66347,-1.43822c0.08706,-0.00348 0.1776,-0.00696 0.26814,-0.00696h1.06909c2.30185,-0.04179 6.20908,-0.60941 11.61025,-1.68895c0.69648,-0.15671 1.41733,-0.12885 2.18345,0.09054c0.3552,0.10099 1.15963,0.33431 1.88048,1.04124c0.15323,0.14975 0.28903,0.30993 0.41441,0.48056c0.48056,0.66166 0.81139,1.40688 0.98551,2.21479c0.07313,0.35172 0.09751,0.70692 0.07313,1.06213c-0.04179,0.65816 -0.01741,1.38598 0.07313,2.16255c0.11492,0.94024 -0.12537,1.89093 -0.66862,2.66402c-0.83228,1.17704 -2.10336,1.92227 -3.56595,2.10336c0.00348,0.06269 0.00696,0.12885 0.00696,0.19154v0.296c1.07605,0.10099 2.06505,0.55718 2.82073,1.30937c1.24321,1.25017 1.25366,2.79635 1.19794,3.59382c0.06269,0.41788 0.08357,0.68951 0.08357,0.95766c0,0.32386 -0.03134,0.67906 -0.10099,1.15963c-0.00696,0.05223 -0.01393,0.09403 -0.02089,0.13582v0.92979c0.01045,0.04527 0.02089,0.08706 0.03134,0.13233z" stroke-width="1"/><path d="M228.23863,189.39066c0.30178,1.35267 0.00356,2.38226 -0.37278,3.07101c-0.96214,1.83551 -2.73019,2.92901 -4.75387,2.92901c-0.38698,0 -0.79172,-0.03905 -1.2284,-0.12426h-1.58699c-0.41539,0 -1.19645,-0.02485 -3.14203,-0.24142c-1.15386,-0.13135 -2.13019,-0.19527 -2.89706,-0.19527h-1.93137c-0.04971,0.00356 -0.22367,0.01421 -0.63905,0.05681c-0.6497,0.06745 -1.1432,0.09941 -1.55859,0.09941c-1.2071,0 -2.2864,-0.24853 -3.20593,-0.73492c-0.06035,-0.03195 -0.11716,-0.06745 -0.17751,-0.0994c-0.61775,-0.37278 -2.05563,-1.48403 -2.05563,-3.82014c0,-1.26036 0.46864,-2.42486 1.31717,-3.28048c0.41184,-0.41894 0.88757,-0.75977 1.40947,-1.01895c-1.17515,-1.28522 -1.53018,-3.10652 -0.89467,-4.82842c0.24852,-0.6568 0.6142,-1.23196 1.08284,-1.71834c-2.13018,-0.71717 -3.15622,-2.51717 -3.22368,-4.25682c-0.18106,-1.33847 0.34083,-2.69823 1.42367,-3.56806c1.0722,-0.86273 2.36451,-1.36687 3.73493,-1.46628c0.08876,-0.00355 0.18106,-0.0071 0.27337,-0.0071h1.08994c2.34675,-0.04261 6.3302,-0.62131 11.83673,-1.7219c0.71007,-0.15977 1.44497,-0.13135 2.22604,0.09231c0.36213,0.10296 1.18225,0.34083 1.91716,1.06154c0.15621,0.15266 0.29468,0.31598 0.42249,0.48994c0.48994,0.67456 0.82722,1.43432 1.00474,2.258c0.07456,0.35858 0.0994,0.72071 0.07456,1.08285c-0.04261,0.67101 -0.01775,1.41302 0.07456,2.20474c0.11716,0.95858 -0.12781,1.92782 -0.68165,2.71599c-0.84853,1.20001 -2.14439,1.95977 -3.63552,2.14439c0.00355,0.0639 0.00709,0.13135 0.00709,0.19526v0.30177c1.09705,0.10296 2.10533,0.56805 2.87575,1.33492c1.26746,1.27456 1.27811,2.8509 1.22131,3.66392c0.06391,0.42604 0.08521,0.70297 0.08521,0.97634c0,0.33018 -0.03195,0.69231 -0.10296,1.18225c-0.0071,0.05325 -0.0142,0.09586 -0.0213,0.13846v0.94794c0.01066,0.04615 0.0213,0.08876 0.03196,0.13491z" stroke-width="1"/><path d="M204.19214,185.98213v-13.70817h14.45931v13.70817z" stroke-width="0"/><path d="M242.40965,175.9607v1.68547c0,0.99945 -0.17412,2.42025 -0.54673,4.47137c-0.15323,0.95417 -0.44575,1.93621 -0.86711,2.92172c-0.00696,0.01393 -0.01394,0.02438 -0.01741,0.03831c-0.74871,1.68896 -1.98147,3.16199 -3.66694,4.37735c-1.7969,1.29197 -3.6565,1.94665 -5.5335,1.94665c-0.75916,0 -1.4835,-0.1184 -2.16256,-0.34824c-2.40633,-0.77657 -4.3077,-2.2531 -5.64842,-4.38779c-0.28904,-0.47012 -0.57459,-1.05168 -0.92979,-1.90138c-0.00697,-0.02089 -0.01393,-0.0383 -0.02437,-0.0592c-0.43878,-1.10043 -0.6721,-1.98148 -0.73479,-2.77545c-0.01044,-0.13581 -0.04875,-0.46316 -0.17412,-1.10391c-0.04527,-0.24029 -0.06965,-0.48405 -0.06965,-0.72782v-1.49046c-0.15322,-0.58852 -0.16716,-1.21883 -0.01741,-1.84217c0.05571,-0.24029 0.13581,-0.4736 0.23332,-0.68951c0,-0.42485 0.07313,-0.84971 0.21242,-1.25366c0.03831,-0.17412 0.09054,-0.34475 0.15322,-0.51539c0.00348,-0.00348 0.06617,-0.18109 0.15323,-0.6721c0.10448,-0.60245 0.29948,-1.37902 0.592,-2.35757c0.00348,-0.01044 0.00696,-0.02438 0.01044,-0.03483c0.56762,-1.82477 1.71334,-3.55551 3.50328,-5.28973c0.01393,-0.01393 0.02438,-0.02437 0.03831,-0.03482c0.90541,-0.85666 1.95013,-1.39992 3.10628,-1.62279c0.20894,-0.03831 0.42136,-0.0592 0.63727,-0.06616c0.13233,-0.00348 0.48405,-0.02437 1.05864,-0.05571c0.02089,0 0.04179,-0.00348 0.06268,-0.00348c1.69592,-0.06965 3.3013,0.29252 4.78827,1.06909c1.71681,0.87756 3.07493,2.19738 4.03956,3.92464c0.45619,0.81836 0.84622,1.81083 1.19445,3.04359c0.40744,1.39643 0.60941,2.62571 0.60941,3.754z" stroke-width="1"/><path d="M212.15944,186.08681c0,0.26982 -0.0284,0.5361 -0.0852,0.79882c-0.01775,0.11716 -0.06036,0.36568 -0.12427,0.74912c-0.13846,0.83077 -0.54319,1.59764 -1.15386,2.17988c-0.91953,0.88048 -2.05208,1.45918 -3.31244,1.70415c-0.23077,0.12426 -0.53255,0.28402 -0.92663,0.50059c-0.33018,0.17751 -0.68166,0.30533 -1.04734,0.38343c-0.03551,0.01065 -0.21302,0.04971 -0.6497,0.18107c-0.53254,0.26982 -1.23196,0.58226 -2.15859,0.95858c-0.15977,0.06745 -0.32307,0.12072 -0.48994,0.16331c-0.45799,0.12072 -0.91953,0.18107 -1.37042,0.18107c-1.44143,0 -2.75149,-0.59646 -3.69232,-1.68285c-0.18107,-0.20947 -0.33728,-0.43668 -0.47219,-0.67811c-0.17042,-0.07456 -0.33373,-0.15621 -0.49705,-0.24852c-0.22012,0.07811 -0.44733,0.15266 -0.6781,0.21301c-0.22722,0.05681 -0.45799,0.09586 -0.68876,0.11361c-0.23432,0.01775 -0.58934,0.05325 -1.06154,0.1065c-0.85207,0.12072 -1.76806,0.28048 -2.73374,0.47929c-0.66036,0.24497 -1.51599,0.51835 -2.59883,0.83433c-0.12427,0.03551 -0.25207,0.06391 -0.37988,0.08876c-0.69941,0.12781 -1.44852,0.12072 -2.22959,-0.03195c-2.34321,-0.41539 -3.24498,-1.94557 -3.57162,-2.81185c-0.15266,-0.40474 -0.29468,-0.96924 -0.29468,-1.66155c0,-0.35858 0.03905,-0.75266 0.13491,-1.17515c0.41894,-1.92427 2.04142,-2.8083 2.85444,-3.24499c0.35149,-0.19526 0.68876,-0.35503 1.01894,-0.48994c0.07811,-1.02249 0.18816,-3.05326 0.31598,-7.07221v-0.36214c-2.10534,-0.36213 -3.70652,-1.87456 -4.13611,-3.9941c-0.20592,-0.97633 -0.05681,-1.99173 0.42959,-2.89706c0.72782,-1.42012 2.09468,-2.36805 3.77753,-2.60947c0.10296,-0.0142 0.20947,-0.02485 0.31598,-0.03195c0.30177,-0.01775 0.6213,-0.04261 0.95148,-0.071c0.36923,-0.03196 0.96924,-0.07811 1.80001,-0.14201c0.05681,-0.0071 0.11716,-0.0071 0.17396,-0.01065c0.01065,0 0.0213,-0.00355 0.03195,-0.00355c1.24261,-0.33018 2.56687,-0.20947 3.79883,0.35148c0.49705,0.22367 0.94083,0.55385 1.30297,0.96214c0.42959,0.47929 0.81656,1.11124 1.38817,2.2509c0.03195,0.06746 0.0639,0.13491 0.0923,0.20237c0.08521,0.19526 0.17397,0.40474 0.27338,0.62841c0.0071,-0.08876 0.0142,-0.18462 0.0213,-0.28402c0.00356,-0.03905 0.0071,-0.08166 0.01065,-0.12071c0.25917,-2.3929 2.10178,-4.15385 4.69707,-4.48759c0.21657,-0.0284 0.43669,-0.03905 0.65326,-0.02841c0.46509,0.01775 1.19646,0.0142 2.14084,-0.00355h0.0781c0.32663,0 0.97633,-0.0142 2.2154,-0.08166c1.2071,-0.11716 2.40356,0.20237 3.4083,0.89823c1.33136,0.91953 2.09113,2.36451 2.09113,3.96215c0,1.7006 -0.90888,3.24499 -2.42842,4.12902c-0.65326,0.37989 -1.34911,0.63195 -2.07338,0.75621c0.0639,0.46509 0.14201,1.0012 0.23432,1.59765c0.29112,1.6367 0.52545,3.12427 0.69587,4.43789c1.85325,0.32308 3.66747,1.60474 3.92309,3.99055v0.00356c0.01775,0.13846 0.02485,0.28047 0.02485,0.41894z" stroke-width="1"/><path d="M265.41314,169.41511c0,2.26355 -1.34768,4.07786 -3.44059,4.62459c-0.06616,0.01741 -0.13581,0.03482 -0.20198,0.05223c-0.06964,0.55718 -0.15671,1.16311 -0.2577,1.82477l-0.51191,3.62167c-0.1776,1.42081 -0.63727,4.14751 -1.40688,8.33682c-0.00348,0.01393 -0.00696,0.02437 -0.00696,0.0383c-0.19849,1.02034 -0.296,1.4034 -0.44575,1.78646c-0.00696,0.01741 -0.01393,0.03134 -0.0209,0.04527c-0.50843,1.23624 -1.4417,2.20435 -2.69536,2.79983c-0.51539,0.24029 -1.07606,0.36565 -1.6402,0.36565c-0.10796,0 -0.21242,-0.00348 -0.32037,-0.01045c-0.25073,-0.02089 -0.4945,-0.04527 -0.72782,-0.06616c-0.04527,-0.00348 -0.09054,-0.00696 -0.13581,-0.01393c-1.50438,-0.18805 -2.44463,-0.86711 -2.98788,-1.45216c-0.15323,-0.16367 -0.296,-0.3343 -0.42833,-0.51887c-0.30993,0.2751 -0.61987,0.48056 -0.90542,0.63727c-0.33083,0.18457 -0.68952,0.31689 -1.06212,0.39351c-0.40048,0.08358 -0.97855,0.20198 -1.73771,0.34824c-0.69299,0.13581 -1.41384,0.07661 -2.0755,-0.17064c-0.68603,-0.2577 -1.32331,-0.68603 -1.94665,-1.30938c-0.43878,-0.43878 -0.76612,-0.97855 -0.95069,-1.57403c-0.65816,-2.12425 -1.50787,-5.24446 -2.59785,-9.53475c-0.00696,-0.03831 -0.01741,-0.07312 -0.02438,-0.11144c-0.11492,-0.51191 -0.29252,-1.27107 -0.5328,-2.27051c-0.16367,-0.50494 -0.36914,-1.1457 -0.6129,-1.92576c-1.25714,-0.30645 -2.12425,-0.96113 -2.68143,-1.53921c-0.52933,-0.54673 -1.15963,-1.48001 -1.27455,-2.90082c-0.01045,-0.10099 -0.01393,-0.20546 -0.01393,-0.30993c0,-1.17356 0.38306,-2.24265 1.10391,-3.09932c0.7522,-0.91239 1.57055,-1.49046 2.50383,-1.76557c0.7522,-0.24029 1.62279,-0.3761 2.65008,-0.40396c0.5328,-0.01393 1.06561,-0.01044 1.58449,-0.02437c0.46316,-0.0592 1.07605,-0.13582 1.84566,-0.22635c0.10796,-0.01393 0.21939,-0.02089 0.33082,-0.02437c0.14626,-0.00697 0.28904,-0.00697 0.42137,-0.00697c0.91935,0 1.65761,0.10099 2.31926,0.32386c0.02089,0.00348 0.03831,0.01044 0.05921,0.01741c0.33779,0.1184 0.65469,0.27163 0.9472,0.44923c0.31342,-0.1184 0.64075,-0.20894 0.98551,-0.27163c0.12885,-0.0209 0.2577,-0.03831 0.39002,-0.04527c0.61638,-0.04527 1.23276,0.01044 1.83521,0.16018c0.93676,-1.00989 2.274,-1.581 3.79232,-1.581c0.42137,0 0.90891,0.05571 1.63323,0.18108c0.03482,0.00348 0.06964,0.01044 0.10099,0.01741c0.00348,0 0.00348,0 0.00348,0c0.45968,-0.03134 0.97855,-0.01044 1.76208,0.0592c0.55718,0.04179 1.12132,0.0801 1.69243,0.1184c1.08651,0.06616 2.0163,0.25421 2.81377,0.57111c0.06964,0.02786 0.13581,0.05571 0.20198,0.08706c1.67154,0.78005 2.6675,2.38891 2.6675,4.29726z" stroke-width="1"/></g><path d="M208.02868,186.20163c0,-0.02059 -0.05219,0.28119 -0.15621,0.90568c-0.47929,0.45834 -1.08284,0.70793 -1.81137,0.74947c-0.33302,0.16687 -0.86415,0.44805 -1.59231,0.8432c-0.29184,0.06248 -0.73953,0.18709 -1.34273,0.37491c-0.39586,0.22935 -1.10379,0.55208 -2.12344,0.96818c-0.47929,0.12498 -0.85385,0.03124 -1.12439,-0.28118c-0.08343,-0.58261 0.23929,-1.08214 0.96817,-1.49894c0.60356,-0.29148 1.20711,-0.59361 1.81137,-0.90569c-0.20805,-3.56025 -0.6664,-6.99517 -1.37397,-10.30548c0,0.02094 -0.02095,0.05219 -0.06249,0.09373c-0.24959,2.14475 -0.64545,5.19481 -1.18687,9.14986c-0.04189,0.29184 -0.1871,0.72923 -0.43704,1.31149c-0.08308,0.06248 -0.19278,0.1303 -0.32805,0.20307c-0.13562,0.07313 -0.42177,0.16118 -0.85881,0.2652c-0.41645,0.08343 -0.71787,-0.12497 -0.90568,-0.6245c-0.24959,-0.79136 -0.73917,-1.98817 -1.4677,-3.59113c-0.45799,-0.91598 -1.16627,-2.22746 -2.12345,-3.93481c-0.31242,-0.52048 -0.6664,-1.21812 -1.06154,-2.09255c-0.56237,-1.24936 -0.8954,-1.97752 -0.99941,-2.18592c-0.04189,0.33302 -0.08308,1.07255 -0.12497,2.21717c-0.02095,0.24959 -0.02095,0.59325 0,1.0303c0,0.58331 0,0.95788 0,1.12439c0,0.14592 -0.02095,0.36426 -0.06249,0.65575c-0.06248,0.35432 -0.09373,0.5936 -0.09373,0.71822c-0.0213,0.35432 -0.06248,1.29124 -0.12497,2.81043c-0.0213,0.95788 -0.0213,1.54119 0,1.74888c0,0.2084 0.11397,0.33338 0.34332,0.37492c0.06248,0 0.18745,-0.02059 0.37491,-0.06248c0.18745,-0.04153 0.32237,-0.07278 0.40616,-0.09373c0.35361,-0.02059 0.74948,-0.08841 1.18687,-0.20308c0.43704,-0.11397 0.72851,-0.17148 0.87443,-0.17148c0.31242,0 0.59325,0.12497 0.8432,0.37492c0.08272,0.35432 0.08272,0.69763 0,1.0303c-0.31242,0.29184 -0.70793,0.49952 -1.18687,0.62485c-0.27089,0.02094 -0.68735,0.06249 -1.24936,0.12498c-1.04131,0.14592 -2.15468,0.34367 -3.34154,0.5936c-0.58296,0.22935 -1.44711,0.51053 -2.59173,0.84285c-0.22935,0.04224 -0.49988,0.0316 -0.81196,-0.03124c-0.37492,-0.06249 -0.58331,-0.17645 -0.62486,-0.34332c-0.06248,-0.16651 -0.06248,-0.37492 0,-0.62485c0.02059,-0.12498 0.32272,-0.34367 0.90569,-0.6561c0.37492,-0.2077 0.7026,-0.34793 0.98379,-0.42178c0.28083,-0.07242 0.55633,-0.14059 0.82722,-0.20272c0.20805,-0.02059 0.53113,-0.07279 0.96853,-0.15586c0.08272,-0.04153 0.14521,-0.12533 0.1871,-0.24995c0,-0.52012 0.01029,-1.19681 0.03123,-2.03007c0.12497,-1.26959 0.24995,-3.89291 0.37492,-7.86961v-1.68604c0.02059,-0.89503 -0.02094,-1.82166 -0.12497,-2.77954c-0.08343,-0.12497 -0.17715,-0.17645 -0.28118,-0.15586c-0.58331,0.12497 -1.39528,0.24959 -2.43552,0.37492c-0.79136,0.02094 -1.24935,-0.30178 -1.37432,-0.96853c-0.02095,-0.08272 0,-0.17645 0.06284,-0.28083c0.14521,-0.31242 0.43705,-0.49953 0.87444,-0.56237c0.33266,-0.02059 0.68166,-0.04686 1.04592,-0.07811c0.3639,-0.03124 0.95255,-0.07811 1.7645,-0.14059c0.16651,0 0.42639,-0.03124 0.78072,-0.09373c0.41609,-0.14556 0.85314,-0.11432 1.31149,0.09373c0.16651,0.1871 0.43704,0.65574 0.81196,1.40521c0.58261,1.35338 1.48794,3.37279 2.7167,6.05825c0.33302,0.6039 0.79101,1.4677 1.37397,2.59208c0.37492,0.74947 0.95717,1.8735 1.74889,3.3728c0.29112,-1.62391 0.87443,-5.21505 1.74888,-10.77412c0.02059,-0.06249 0.08308,-0.78072 0.18746,-2.15469c0.06249,-0.58261 0.49952,-0.92592 1.31148,-1.0303c0.52012,0.02094 1.31149,0.02094 2.37338,0c0.56202,0 1.40521,-0.03124 2.5296,-0.09373c0.31242,-0.04154 0.60356,0.03124 0.87443,0.21834c0.27053,0.1871 0.40616,0.43704 0.40616,0.74948c0,0.31206 -0.16154,0.56201 -0.4839,0.74912c-0.32308,0.18745 -0.66107,0.29184 -1.01468,0.31242c-0.27125,-0.12497 -0.5936,-0.1871 -0.96852,-0.1871c-0.81195,0 -1.60332,0.10439 -2.37338,0.31207c-0.10439,0.0213 -0.14592,0.2606 -0.12497,0.71823c0,0.37492 0.04118,0.92663 0.12497,1.65516c0.04118,0.08343 0.10403,0.22935 0.1871,0.43704c0.08308,0.70793 0.22899,1.74889 0.43704,3.12286c0.35397,1.97823 0.61384,3.69588 0.78071,5.15292c0.24994,2.14439 0.37492,3.24746 0.37492,3.3103c0.12497,0.04189 0.36391,-0.04153 0.71823,-0.24994c0.52012,-0.27053 0.8219,-0.42639 0.90568,-0.46828c0.2077,-0.08272 0.47859,-0.12497 0.81196,-0.12497c0.6245,0.00106 0.95716,0.19881 0.99905,0.59396z" fill="#ffffff" stroke="none" stroke-width="1"/><path d="M260.8999,168.70391c0.30645,0.14312 0.45933,0.41893 0.45933,0.82707c0,0.51086 -0.19432,0.81731 -0.58191,0.91899c-0.38828,0.10238 -0.73513,0.14313 -1.04157,0.12293c-0.04109,0 -0.30611,-0.07139 -0.79642,-0.21451c-0.38794,-0.10204 -0.71493,-0.14243 -0.97994,-0.12258c-0.02054,0.02054 -0.03065,0.57215 -0.03065,1.65413c-0.06129,0.919 -0.20442,2.11346 -0.42869,3.58372c-0.30645,2.16499 -0.48022,3.38975 -0.52061,3.676c-0.16367,1.32748 -0.62335,4.04304 -1.37833,8.14771c-0.12293,0.6324 -0.20442,1.00014 -0.24516,1.10287c-0.14312,0.34685 -0.40883,0.61256 -0.79642,0.79607c-0.24481,-0.02054 -0.47987,-0.04109 -0.70414,-0.0613c-0.32699,-0.04109 -0.55161,-0.13303 -0.67419,-0.27546c-0.22496,-0.22496 -0.38793,-0.60245 -0.48997,-1.13352c-0.20441,-0.83716 -0.30645,-1.26619 -0.30645,-1.28639c-0.16367,-0.51052 -0.57181,-1.99122 -1.22545,-4.44177c-0.34719,-1.34768 -0.87791,-3.40019 -1.59249,-6.15684c-0.14312,0.73513 -0.28625,1.67468 -0.42868,2.81794c-0.16402,1.59284 -0.34754,3.06345 -0.55161,4.41113c-0.10238,0.8779 -0.27545,2.10335 -0.52061,3.67599c-0.16367,0.77622 -0.44923,1.27595 -0.85771,1.50091c-0.38794,0.08114 -0.94964,0.19397 -1.68477,0.33709c-0.16367,-0.06129 -0.35729,-0.20441 -0.58191,-0.42868c-0.6331,-2.04172 -1.48071,-5.15635 -2.54248,-9.34252c-0.12258,-0.55126 -0.3169,-1.37832 -0.58191,-2.48119c-0.2657,-0.81662 -0.65399,-2.04172 -1.16415,-3.676c-0.04109,-0.24481 -0.16366,-0.58191 -0.36773,-1.01059c-0.61255,0.10238 -1.02138,0.15288 -1.22545,0.15288c-0.6331,0 -1.12341,-0.18352 -1.47026,-0.55126c-0.12293,-0.12258 -0.19467,-0.30645 -0.21451,-0.55126c0,-0.26535 0.07139,-0.47952 0.21451,-0.64354c0.26501,-0.3263 0.48998,-0.51017 0.67384,-0.55126c0.40848,-0.14243 0.95974,-0.22461 1.65413,-0.24516c0.592,0 1.18401,-0.00975 1.77671,-0.03064c0.46977,-0.06129 1.13352,-0.14243 1.99122,-0.24481c0.63275,-0.0202 1.10287,0.02055 1.40897,0.12258c0.40848,0.14312 0.6129,0.43948 0.6129,0.88836c0,0.20441 -0.04109,0.35764 -0.12293,0.45932c-0.24481,0.2657 -0.59235,0.42869 -1.04124,0.48998c-0.36774,0.04109 -0.74592,0.07208 -1.13351,0.09228c-0.12258,0.02054 -0.3061,0.0613 -0.55126,0.12258c-0.16367,0.10238 -0.23506,0.32665 -0.21417,0.67384c0.0202,0.34754 0.20372,1.01093 0.55126,1.99122c0.16333,0.47012 0.62265,2.37916 1.37833,5.72816c0.32664,1.12342 0.81662,2.84858 1.47061,5.17655c-0.02089,0 0.00975,0.04109 0.09193,0.12258c0.28556,-1.08197 0.55126,-2.53204 0.79642,-4.34949c0.16333,-1.24529 0.3263,-2.4913 0.48997,-3.73694c0.0404,-0.38759 0.10204,-0.95974 0.18353,-1.71541c0.08114,-0.44888 0.18387,-1.15336 0.30645,-2.11346c0,-0.6324 0.07139,-1.57229 0.21417,-2.81829c0.08149,-0.36739 0.35695,-0.59166 0.82707,-0.67384c0.2859,-0.0202 0.5718,0.02054 0.85771,0.12258c0.36774,0.14312 0.55161,0.34754 0.55161,0.6129c0,0.75567 0.12258,1.63359 0.36739,2.63408c0.20407,0.59235 0.44922,1.42952 0.73513,2.51184c0.06129,0.32664 0.82706,3.31835 2.29732,8.97478c0.04074,0.12258 0.10204,0.23506 0.18388,0.33675c0.28556,-1.06143 0.48997,-1.97033 0.61255,-2.72601c0.36774,-2.1643 0.84726,-5.5234 1.43996,-10.07765c0.0202,-0.0404 0.00975,-0.59166 -0.031,-1.65378c-0.04109,-0.06164 -0.09193,-0.10204 -0.15287,-0.12293c-0.55126,-0.12258 -1.11297,-0.24481 -1.68478,-0.36774c-0.73513,-0.16298 -1.10252,-0.39804 -1.10252,-0.70414c0,-0.08114 0.03064,-0.17342 0.09193,-0.2758c0.20372,-0.44888 0.60211,-0.67384 1.19481,-0.67384c0.18352,0 0.51017,0.04109 0.97994,0.12258c0.40814,0.08184 0.71459,0.10725 0.919,0.07661c0.20407,-0.03064 0.63274,-0.01532 1.28639,0.04597c0.57146,0.04109 1.15336,0.08184 1.74606,0.12258c0.69334,0.04005 1.24461,0.14173 1.65344,0.30505z" fill="#ffffff" stroke="none" stroke-width="1"/><path d="M276.5427,177.13033c-0.24481,0.34754 -0.623,0.52096 -1.13317,0.52096c-0.2657,0 -0.50076,-0.05084 -0.70448,-0.15322c-0.02054,-0.55126 -0.07174,-1.36788 -0.15288,-2.45055c-1.73596,0.32699 -4.50306,0.80687 -8.30094,1.43996c-0.18387,0.02054 -0.33709,0.07174 -0.45968,0.15288c0.10204,1.87909 0.15323,3.71708 0.15323,5.51364c0.20685,0.04109 0.8591,-0.05084 1.9564,-0.2758c0.53838,-0.08114 1.36718,-0.27546 2.48502,-0.5819c0.0202,-0.32664 -0.02054,-0.87304 -0.12258,-1.63881c-0.10238,-0.76577 -0.14312,-1.33235 -0.12258,-1.7001c0,-0.38759 0.26501,-0.5819 0.79642,-0.5819c0.61255,0 0.93885,0.25526 0.97994,0.76577c0.08114,0.77622 0.20372,1.94004 0.36774,3.49179v4.74787c0.06129,0.08184 0.10168,0.14312 0.12257,0.18352c-0.06129,0.24516 -0.23506,0.4548 -0.52061,0.62822c-0.28625,0.17377 -0.57216,0.26013 -0.85771,0.26013c-0.36774,0 -0.61289,-0.16298 -0.73513,-0.48997c0.04074,-0.20372 0.07139,-0.52061 0.09193,-0.94964v-2.81794c-1.29579,0.04109 -2.75561,0.30609 -4.38013,0.79606c0,0.36774 -0.01044,1.30729 -0.03064,2.81829c-0.02089,1.24564 -0.02089,2.0936 0,2.54248c0,0.10238 0.08114,0.28625 0.24516,0.55126c0.42868,0.02089 1.09207,0.06129 1.99087,0.12292c1.04157,0.10238 2.08282,0.20407 3.12439,0.30611c1.24529,0.14312 2.28687,0.19467 3.12474,0.15323c0.0202,-0.26535 0.07103,-0.68429 0.15287,-1.25575v-1.80736c-0.12258,-0.20372 -0.18387,-0.39839 -0.18387,-0.58191c0,-0.30645 0.12745,-0.56659 0.38306,-0.7811c0.25491,-0.21417 0.53629,-0.32177 0.84239,-0.32177c0.24516,0 0.43913,0.07209 0.58226,0.21451c0.08114,0.08184 0.10168,0.34754 0.06129,0.79642c-0.02089,0.10238 -0.01044,0.28102 0.03065,0.53593c0.04074,0.25561 0.0613,0.42415 0.0613,0.50529c0,0.12293 -0.02055,0.32178 -0.0613,0.59758c-0.04109,0.27545 -0.06129,0.42415 -0.06129,0.444v1.83765c0,0.02089 0.0404,0.12258 0.12258,0.30645c0.04074,0.18352 0.04074,0.30611 0,0.36774c-0.2866,0.57215 -0.71667,0.85771 -1.28883,0.85771c-0.14347,0 -0.31725,-0.0202 -0.52201,-0.06129c-0.20511,-0.04074 -0.32735,-0.0613 -0.36844,-0.0613h-1.87212c-0.49102,0 -1.37589,-0.07139 -2.65497,-0.21451c-1.27873,-0.14243 -2.3687,-0.21417 -3.26855,-0.21417h-1.93342c-0.16402,0 -0.49102,0.02577 -0.98203,0.07661c-0.49102,0.05084 -0.86989,0.07661 -1.13595,0.07661c-0.5523,0 -1.00293,-0.09194 -1.35012,-0.27581c-0.10238,-0.06129 -0.15358,-0.21416 -0.15358,-0.45932c0,-0.22461 0.06094,-0.39839 0.18213,-0.52062c0.26292,-0.26535 0.62718,-0.41823 1.09277,-0.45933c0.30331,0 0.61673,0 0.94094,0c0.22218,0.04109 0.5255,0.02055 0.9103,-0.06129c0.12153,-0.06163 0.19257,-0.20406 0.21242,-0.42868c0.0202,-0.14278 0.0202,-0.35694 0,-0.64355c-0.0202,-0.32664 -0.03029,-0.51017 -0.03029,-0.55126c0,-2.1239 -0.00975,-3.33891 -0.0303,-3.64535c-0.36113,-0.0404 -0.86328,-0.17307 -1.50543,-0.39838c-0.28311,-0.22461 -0.35381,-0.53071 -0.21034,-0.919c0.12258,-0.32664 0.39839,-0.56136 0.82707,-0.70448c0.3061,-0.10169 0.61256,-0.19396 0.919,-0.27546c0.06129,-0.22461 0.07104,-0.50042 0.03065,-0.82707c-0.04109,-0.28556 -0.07174,-0.56136 -0.09194,-0.82706c-0.04109,-0.8779 -0.11248,-2.22559 -0.21451,-4.04339c-0.08184,0 -0.35729,0.02577 -0.82706,0.07696c-0.47012,0.05084 -0.83751,0.07661 -1.10252,0.07661c-0.93954,0 -1.40932,-0.28102 -1.40932,-0.84343c0,-0.07975 0.0101,-0.1703 0.03065,-0.27094c-0.02054,-0.04005 -0.0404,-0.06025 -0.06129,-0.06025c0.44888,-0.36077 0.95974,-0.56171 1.53155,-0.6021c0.36774,0 0.73478,0 1.10252,0c2.55258,-0.04074 6.68791,-0.63275 12.40562,-1.77671c0.06129,-0.02054 0.16333,-0.0101 0.30645,0.03064c0.14243,0.04109 0.22462,0.07174 0.24481,0.09194c0.16333,0.22496 0.27581,0.47987 0.33709,0.76577c-0.06163,0.8988 -0.031,1.85785 0.09124,2.87888z" fill="#ffffff" stroke="none" stroke-width="1"/><path d="M294.35512,183.85037c0.08114,0.30645 -0.05606,0.77134 -0.413,1.394c-0.35625,0.623 -0.73304,1.067 -1.13038,1.33236c-0.39734,0.26535 -1.01372,0.43912 -1.84844,0.52061c-0.67245,0.06129 -1.29892,-0.23506 -1.87909,-0.88835c-0.58086,-0.65329 -0.91134,-1.37833 -0.99283,-2.17475c-0.22461,-2.24613 -0.50982,-3.85952 -0.85597,-4.83981c-0.04109,-0.24481 -0.15288,-0.60698 -0.3364,-1.0872c-0.18318,-0.47953 -0.60071,-0.87304 -1.25261,-1.17948c-0.48928,-0.18352 -0.98795,-0.37749 -1.49707,-0.5819c-0.08149,-0.0202 -0.18317,-0.0202 -0.3054,0c-0.28521,0.08149 -0.87651,0.24481 -1.77253,0.48998v0.5819v2.38926c0,0.04109 0.01532,0.23506 0.04597,0.5819c0.03065,0.34754 0.04597,0.59271 0.04597,0.73513c0.04074,0.34754 0.09228,1.26654 0.15323,2.75665c0.14243,0.06163 0.29565,0.06163 0.45933,0c0.55126,-0.22461 1.04123,-0.27546 1.47026,-0.15288c0.30645,0.10238 0.45933,0.34754 0.45933,0.73513c0,0.57215 -0.30122,0.91412 -0.90367,1.02591c-0.60245,0.11248 -1.48558,0.27093 -2.64939,0.47499c-0.93954,0.18352 -1.63394,0.27546 -2.08281,0.27546c-0.69438,0 -1.17461,-0.16333 -1.43962,-0.48998c-0.06129,-0.67419 0.28556,-1.08197 1.04124,-1.22545c0.61289,-0.06129 1.22544,-0.13268 1.83765,-0.21451c0.08149,-0.10169 0.12293,-0.21417 0.12293,-0.33675c-0.02089,-0.46977 -0.13303,-2.15455 -0.33709,-5.05432c-0.06129,-0.69403 -0.08184,-1.22545 -0.0613,-1.59284c-0.36774,-0.0202 -0.61289,-0.05084 -0.73513,-0.09193c-0.30645,-0.10204 -0.50076,-0.296 -0.5819,-0.5819v-0.09228c0.0404,-0.0202 0.07103,-0.12258 0.09193,-0.3061c0.28556,-0.44922 0.6533,-0.62265 1.10287,-0.52097c0.0404,-0.12258 0.03064,-0.44888 -0.031,-0.97994c-0.18352,-1.93968 -0.29635,-3.49178 -0.33675,-4.65593c-0.08184,-0.08114 -0.25561,-0.10204 -0.52096,-0.0613c-0.40848,0.08184 -0.623,0.12258 -0.6432,0.12258c-1.10287,0 -1.63393,-0.26501 -1.59283,-0.79642c0.04074,-0.48998 0.45932,-0.78562 1.25574,-0.88835c0.71458,-0.14243 2.21549,-0.36739 4.50306,-0.67384c-0.10238,0.02054 0.62265,0.05085 2.17475,0.09194c1.79656,0.14312 3.05265,0.43947 3.76758,0.88835c0.77587,0.51086 1.29649,1.18435 1.56185,2.02186c0.08114,0.2657 0.10203,0.66374 0.06129,1.19481c-0.02054,0.53106 -0.10238,0.90855 -0.24481,1.13316c-0.47012,0.85771 -1.41942,1.62348 -2.84893,2.29767c0,0.06129 0.0101,0.10238 0.03065,0.12258c0.51052,0.36774 0.85771,0.69439 1.04158,0.97995c0.53037,0.85771 0.88836,2.1037 1.07187,3.73693c0.26535,2.22629 0.47953,3.62481 0.6432,4.19662c0.02054,0.12258 0.16333,0.31654 0.42868,0.5819c0.26535,0.26606 0.47987,0.40883 0.64354,0.42868c0.6324,0.04109 1.02103,-0.24481 1.16416,-0.85771c-0.02089,-0.22461 0.07104,-0.53072 0.27545,-0.919c0.2859,-0.26535 0.63274,-0.39839 1.04157,-0.39839c0.40918,0.0007 0.67454,0.18492 0.79747,0.55196zM288.22892,173.09887c0.18352,-0.18352 0.27546,-0.46943 0.27546,-0.85771c0,-1.04124 -0.36774,-1.78646 -1.10252,-2.23604c-0.73513,-0.44888 -2.32832,-0.65329 -4.77887,-0.61255c-0.18352,0 -0.45932,0.08149 -0.82706,0.24481c0.06163,0.30645 0.06163,0.56171 0,0.76577c-0.02054,0.30645 -0.02054,0.59235 0,0.85771c0.0101,0.55126 0.03099,1.2359 0.06163,2.05252c0.10169,1.2049 0.15288,1.87909 0.15288,2.02151c0.34685,-0.0202 0.85771,-0.12258 1.53155,-0.3061c0.10169,-0.10204 0.24481,-0.21451 0.42868,-0.33709c0.14243,-0.04074 0.51017,-0.0613 1.10252,-0.0613c1.12341,0.00035 2.17544,-0.50982 3.15573,-1.53155z" fill="#ffffff" stroke="none" stroke-width="1"/><path d="M238.35364,177.76135c0,0.75567 -0.16402,2.03232 -0.49032,3.82888c-0.10204,0.65364 -0.3061,1.33793 -0.61289,2.05251c-0.47012,1.06212 -1.27107,2.00167 -2.40423,2.81829c-1.13352,0.81662 -2.23116,1.2251 -3.29293,1.2251c-0.34719,0 -0.66374,-0.05084 -0.94965,-0.15288c-1.55209,-0.48998 -2.75665,-1.41907 -3.61436,-2.78765c-0.16402,-0.26501 -0.37819,-0.71458 -0.64354,-1.34768c-0.2859,-0.71458 -0.444,-1.26584 -0.47465,-1.65413c-0.03064,-0.38759 -0.10726,-0.89811 -0.22984,-1.5312v-2.26703c0.08149,-0.0404 0.04074,-0.10168 -0.12258,-0.18352h0.18387c0,-0.10204 0.0404,-0.296 0.12258,-0.5819c0.08114,-0.2859 0.12258,-0.50042 0.12258,-0.64354c0,-0.12258 -0.03065,-0.23471 -0.09193,-0.33709c0.08114,0 0.15288,-0.03065 0.21417,-0.09193c-0.02054,-0.04074 -0.07174,-0.06129 -0.15288,-0.06129c0.0202,-0.0202 0.05607,-0.05085 0.10726,-0.09193c0.05084,-0.04074 0.08671,-0.07138 0.1076,-0.09193c-0.0209,-0.02054 -0.04597,-0.03587 -0.07696,-0.04631c-0.03064,-0.00975 -0.05642,-0.02508 -0.07661,-0.04597c0.12293,-0.32664 0.23471,-0.77587 0.33709,-1.34768c0.08114,-0.46942 0.24516,-1.11262 0.48998,-1.92959c0.36774,-1.18401 1.2049,-2.40946 2.51184,-3.676c0.36774,-0.34685 0.76578,-0.56136 1.19481,-0.64319c0.06129,0 0.45932,-0.02055 1.1948,-0.06164c1.02103,-0.0404 1.98043,0.17378 2.87923,0.64355c1.04193,0.53106 1.8582,1.32748 2.45055,2.38926c0.3068,0.55126 0.59235,1.29684 0.85771,2.23604c0.3068,1.04124 0.45967,1.94003 0.45967,2.69536v1.68512zM236.33213,174.36151c-0.12188,-0.28556 -0.26466,-0.65329 -0.42729,-1.10287c-0.20407,-0.919 -0.80965,-1.76592 -1.81676,-2.54248c-1.00745,-0.77587 -1.93829,-1.12272 -2.79322,-1.04124c-0.38654,0.04109 -1.03809,0.68464 -1.95431,1.92994c-0.44783,0.59235 -0.89532,1.77671 -1.34281,3.55307c-0.40709,1.65413 -0.60071,2.93042 -0.57982,3.82887c0.0404,1.14361 0.10168,1.94004 0.18317,2.38891c0.14208,0.83751 0.44749,1.60329 0.91551,2.29767c0.44783,0.61255 0.79398,1.01058 1.03809,1.1948c0.91551,0.65364 1.78019,0.97994 2.59472,0.97994c0.18282,0 0.3559,-0.0202 0.51887,-0.06129c0.38654,-0.06129 0.84413,-0.3162 1.37345,-0.76577c0.44783,-0.40848 0.78353,-0.78598 1.0078,-1.13352c0.30505,-0.51017 0.59026,-1.27594 0.85492,-2.29732c0.40675,-1.49046 0.61082,-3.07319 0.61082,-4.74787c0.0007,-0.89811 -0.0606,-1.72517 -0.18318,-2.48085z" fill="#ffffff" stroke="none" stroke-width="1"/><path d="M223.98296,175.29694c-0.24959,0.35432 -0.63515,0.53112 -1.15527,0.53112c-0.27089,0 -0.51054,-0.05183 -0.71823,-0.15621c-0.02094,-0.56202 -0.07314,-1.39456 -0.15586,-2.49836c-1.76983,0.33337 -4.59091,0.82261 -8.46287,1.46805c-0.18745,0.02094 -0.34367,0.07314 -0.46864,0.15586c0.10403,1.91575 0.15621,3.7896 0.15621,5.6212c0.21089,0.04189 0.87586,-0.05184 1.99456,-0.28119c0.54888,-0.08272 1.39385,-0.28083 2.5335,-0.59325c0.02059,-0.33302 -0.02094,-0.89007 -0.12497,-1.67078c-0.10439,-0.78071 -0.14592,-1.35834 -0.12497,-1.73326c0,-0.39515 0.27018,-0.59325 0.81196,-0.59325c0.6245,0 0.95716,0.26024 0.99905,0.78072c0.08272,0.79136 0.2077,1.97787 0.37492,3.55989v4.84049c0.06249,0.08343 0.10367,0.14592 0.12497,0.1871c-0.06249,0.24994 -0.23965,0.46367 -0.53077,0.64048c-0.29184,0.17715 -0.58332,0.26521 -0.87444,0.26521c-0.37492,0 -0.62485,-0.16615 -0.74947,-0.49953c0.04154,-0.2077 0.07279,-0.53078 0.09373,-0.96818v-2.87291c-1.32107,0.04189 -2.80936,0.31207 -4.46558,0.81161c0,0.37492 -0.01065,1.33279 -0.03124,2.87326c-0.0213,1.26994 -0.0213,2.13444 0,2.59208c0,0.10438 0.08272,0.29184 0.24995,0.56201c0.43704,0.0213 1.11337,0.06249 2.02971,0.12533c1.06189,0.10438 2.12345,0.20806 3.18534,0.31207c1.26958,0.14592 2.33148,0.19846 3.18569,0.15621c0.02059,-0.27053 0.07243,-0.69764 0.15586,-1.28024v-1.84261c-0.12497,-0.2077 -0.18745,-0.40615 -0.18745,-0.59325c0,-0.31242 0.12994,-0.57763 0.39053,-0.79633c0.25988,-0.21835 0.54675,-0.32805 0.85881,-0.32805c0.24994,0 0.44769,0.07349 0.59361,0.2187c0.08272,0.08343 0.10366,0.35432 0.06249,0.81195c-0.0213,0.10439 -0.01065,0.28651 0.03124,0.54639c0.04154,0.2606 0.06248,0.43243 0.06248,0.51515c0,0.12533 -0.02094,0.32805 -0.06248,0.60923c-0.04189,0.28083 -0.06249,0.43242 -0.06249,0.45266v1.8735c0,0.0213 0.04118,0.12497 0.12497,0.31242c0.04154,0.1871 0.04154,0.31207 0,0.37492c-0.29219,0.58331 -0.73065,0.87444 -1.31397,0.87444c-0.14628,0 -0.32343,-0.0206 -0.53219,-0.06249c-0.20911,-0.04153 -0.33372,-0.06249 -0.37561,-0.06249h-1.90866c-0.50059,0 -1.40272,-0.07278 -2.70676,-0.21869c-1.30367,-0.14521 -2.41492,-0.21834 -3.33232,-0.21834h-1.97114c-0.16722,0 -0.50059,0.02627 -1.00119,0.07811c-0.50059,0.05183 -0.88687,0.07811 -1.15811,0.07811c-0.56308,0 -1.02249,-0.09373 -1.37645,-0.28119c-0.10439,-0.06248 -0.15657,-0.21834 -0.15657,-0.46828c0,-0.22899 0.06213,-0.40615 0.18568,-0.53077c0.26805,-0.27053 0.6394,-0.42639 1.11408,-0.46828c0.30923,0 0.62876,0 0.95929,0c0.22651,0.04189 0.53574,0.02094 0.92805,-0.06249c0.12391,-0.06284 0.19633,-0.20805 0.21656,-0.43704c0.02059,-0.14557 0.02059,-0.3639 0,-0.6561c-0.02059,-0.33302 -0.03088,-0.52012 -0.03088,-0.56202c0,-2.16533 -0.00994,-3.40404 -0.03088,-3.71646c-0.36816,-0.04118 -0.88012,-0.17645 -1.5348,-0.40616c-0.28864,-0.22899 -0.36071,-0.54107 -0.21444,-0.93693c0.12497,-0.33302 0.40616,-0.57231 0.8432,-0.71822c0.31206,-0.10367 0.6245,-0.19776 0.93693,-0.28083c0.06249,-0.22899 0.07242,-0.51018 0.03124,-0.8432c-0.04189,-0.29112 -0.07314,-0.5723 -0.09373,-0.84319c-0.04189,-0.89503 -0.11468,-2.269 -0.2187,-4.12226c-0.08343,0 -0.36426,0.02626 -0.8432,0.07845c-0.47929,0.05183 -0.85385,0.07811 -1.12403,0.07811c-0.95788,0 -1.4368,-0.28651 -1.4368,-0.85988c0,-0.08129 0.0103,-0.17361 0.03124,-0.27622c-0.02094,-0.04083 -0.04119,-0.06142 -0.06249,-0.06142c0.45764,-0.36781 0.97846,-0.57266 1.56142,-0.61384c0.37492,0 0.74912,0 1.12403,0c2.60238,-0.04154 6.81837,-0.6451 12.64762,-1.81137c0.06249,-0.02094 0.16651,-0.01029 0.31242,0.03124c0.1452,0.04189 0.229,0.07314 0.24959,0.09373c0.16651,0.22935 0.28119,0.48924 0.34367,0.78071c-0.06284,0.91633 -0.0316,1.89409 0.09302,2.93504z" fill="#ffffff" stroke="none" stroke-width="1"/></g></g></svg>