<svg version="1.1" xmlns="http://www.w3.org/2000/svg" xmlns:xlink="http://www.w3.org/1999/xlink" width="9.34041" height="9.58983" viewBox="0,0,9.34041,9.58983"><g transform="translate(-235.35025,-175.05994)"><g data-paper-data="{&quot;isPaintingLayer&quot;:true}" fill="none" fill-rule="nonzero" stroke="#ffffff" stroke-width="1" stroke-linecap="round" stroke-linejoin="round" stroke-miterlimit="10" stroke-dasharray="" stroke-dashoffset="0" style="mix-blend-mode: normal"><path d="M241.02739,177.57091c-0.17809,0.18167 -0.17809,0.47247 0,0.65415l0.74759,0.74759c0.18167,0.17809 0.47247,0.17809 0.65415,0l1.76153,-1.76153c0.48108,1.06312 0.25333,2.31305 -0.57179,3.13817c-0.82512,0.82512 -2.07506,1.05286 -3.13817,0.57179l-3.22869,3.22869c-0.38709,0.38709 -1.01467,0.38709 -1.40176,0c-0.38709,-0.38709 -0.38709,-1.01467 0,-1.40176l3.22869,-3.22869c-0.48108,-1.06312 -0.25333,-2.31305 0.57179,-3.13817c0.82512,-0.82512 2.07506,-1.05286 3.13817,-0.57179l-1.75685,1.75685z"/></g></g></svg>