<svg version="1.1" xmlns="http://www.w3.org/2000/svg" xmlns:xlink="http://www.w3.org/1999/xlink" width="482" height="362" viewBox="0,0,482,362"><g transform="translate(1.5,1)"><g data-paper-data="{&quot;isPaintingLayer&quot;:true}" fill-rule="nonzero" stroke-linecap="butt" stroke-linejoin="miter" stroke-miterlimit="10" stroke-dasharray="" stroke-dashoffset="0" style="mix-blend-mode: normal"><path d="M-1.5,361v-362h482v362z" fill-opacity="0.50196" fill="#000000" stroke="none" stroke-width="0"/><path d="M415.11292,86.01396c4.30833,0 7.79743,3.48909 7.79743,7.79743c0,36.032 0,136.34522 0,172.37722c0,4.30833 -3.48909,7.79743 -7.79743,7.79743c-71.60318,0 -278.62263,0 -350.22581,0c-4.30833,0 -7.79743,-3.48909 -7.79743,-7.79743c0,-36.032 0,-136.34522 0,-172.37722c0,-4.30833 3.48909,-7.79743 7.79743,-7.79743c71.60318,0 278.62263,0 350.22581,0z" fill="#ffffff" stroke="#0fbd8c" stroke-width="2.5"/><g data-paper-data="{&quot;origPos&quot;:null}" fill="#0fbd8c" stroke="#0fbd8c" stroke-width="2"><path d="M307.02338,180.3001v-15.08196h37.04918v15.08196z" data-paper-data="{&quot;origPos&quot;:null}"/><path d="M322.10533,166.69359c0,7.51469 -6.16526,13.60655 -13.77049,13.60655c-7.60524,0 -13.77049,-6.09186 -13.77049,-13.60655c0,-7.51469 6.16526,-13.60655 13.77049,-13.60655c7.60524,0 13.77049,6.09186 13.77049,13.60655z" data-paper-data="{&quot;origPos&quot;:null}"/><path d="M341.12174,155.70997c0,8.51062 -6.67904,15.40984 -14.91804,15.40984c-8.239,0 -14.91804,-6.89922 -14.91804,-15.40984c0,-8.51062 6.67904,-15.40984 14.91804,-15.40984c8.239,0 14.91804,6.89923 14.91804,15.40984z" data-paper-data="{&quot;origPos&quot;:null}"/><path d="M356.53153,166.69359c0,7.51469 -6.16526,13.60655 -13.77049,13.60655c-7.60524,0 -13.77049,-6.09186 -13.77049,-13.60655c0,-7.51469 6.16526,-13.60655 13.77049,-13.60655c7.60524,0 13.77049,6.09186 13.77049,13.60655z" data-paper-data="{&quot;origPos&quot;:null}"/></g><text transform="translate(131.1255,206.7479) scale(0.3887,0.3887)" font-size="40" xml:space="preserve" data-paper-data="{&quot;origPos&quot;:null}" fill="#0fbd8c" fill-rule="nonzero" stroke="none" stroke-width="1" stroke-linecap="butt" stroke-linejoin="miter" stroke-miterlimit="10" stroke-dasharray="" stroke-dashoffset="0" font-family="Sans Serif" font-weight="normal" text-anchor="start" style="mix-blend-mode: normal"><tspan x="0" dy="0">Device</tspan></text><text transform="translate(288.15941,205.7479) scale(0.38871,0.38871)" font-size="40" xml:space="preserve" data-paper-data="{&quot;origPos&quot;:null}" fill="#0fbd8c" fill-rule="nonzero" stroke="none" stroke-width="1" stroke-linecap="butt" stroke-linejoin="miter" stroke-miterlimit="10" stroke-dasharray="" stroke-dashoffset="0" font-family="Sans Serif" font-weight="normal" text-anchor="start" style="mix-blend-mode: normal"><tspan x="0" dy="0">   Server</tspan></text><path d="M167.35813,142.41249c0.26337,0 0.47667,0.62876 0.47667,1.40512c0,6.4931 0,24.56988 0,31.06298c0,0.77638 -0.21329,1.40512 -0.47667,1.40512c-4.37725,0 -17.03277,0 -21.41002,0c-0.26337,0 -0.47668,-0.62875 -0.47668,-1.40512c0,-6.4931 0,-24.56988 0,-31.06298c0,-0.77638 0.2133,-1.40512 0.47668,-1.40512c4.37725,0 17.03277,0 21.41002,0z" data-paper-data="{&quot;origPos&quot;:null}" fill="none" stroke="#0fbd8c" stroke-width="2.5"/><path d="M170.50513,138.85127c0.3408,0 0.61681,0.83854 0.61681,1.87398c0,8.65967 0,32.76826 0,41.42793c0,1.03544 -0.276,1.87398 -0.61681,1.87398c-5.66407,0 -22.04006,0 -27.70413,0c-0.3408,0 -0.6168,-0.83854 -0.6168,-1.87398c0,-8.65967 0,-32.76826 0,-41.42793c0,-1.03544 0.276,-1.87398 0.6168,-1.87398c5.66407,0 22.04006,0 27.70413,0z" data-paper-data="{&quot;origPos&quot;:null}" fill="none" stroke="#0fbd8c" stroke-width="2.5"/><text transform="translate(184.35542,244.79344) scale(0.45595,0.45595)" font-size="40" xml:space="preserve" fill="#0fbd8c" fill-rule="nonzero" stroke="none" stroke-width="1" stroke-linecap="butt" stroke-linejoin="miter" stroke-miterlimit="10" stroke-dasharray="" stroke-dashoffset="0" font-family="Sans Serif" font-weight="normal" text-anchor="start" style="mix-blend-mode: normal"><tspan x="0" dy="0">Connecting...</tspan></text></g></g></svg>