<svg version="1.1" xmlns="http://www.w3.org/2000/svg" xmlns:xlink="http://www.w3.org/1999/xlink" width="16.51886" height="11.51938" viewBox="0,0,16.51886,11.51938"><g transform="translate(-232.07883,-173.96942)"><g data-paper-data="{&quot;isPaintingLayer&quot;:true}" fill-rule="nonzero" stroke="#ffffff" stroke-linecap="butt" stroke-linejoin="miter" stroke-miterlimit="10" stroke-dasharray="" stroke-dashoffset="0" style="mix-blend-mode: normal"><path d="M246.55653,182.40783c0,0.58304 0.18869,2.16875 -0.78296,2.58097c-0.97165,0.41222 -1.54468,-1.16853 -2.67393,-1.11445c-1.12926,0.05408 -1.69181,1.53088 -2.7545,1.09676c-1.0627,-0.43412 -0.83913,-1.98716 -0.83913,-2.56477c0,-1.71659 2.05348,-3.89822 3.59841,-3.89822c1.54493,0 3.45213,2.18311 3.45213,3.8997z" fill="none" stroke-width="1"/><path d="M239.91562,178.31273c0.15998,0.92989 -0.15375,1.76002 -0.70076,1.85413c-0.54701,0.09411 -1.12011,-0.58343 -1.2801,-1.51332c-0.15998,-0.92989 0.15375,-1.76001 0.70076,-1.85412c0.54701,-0.09411 1.12011,0.58343 1.2801,1.51332z" fill="none" stroke-width="1"/><path d="M247.35518,176.5649c0.54701,0.09411 0.86073,0.92424 0.70074,1.85413c-0.15998,0.92989 -0.73309,1.60744 -1.2801,1.51332c-0.54701,-0.09411 -0.86074,-0.92424 -0.70076,-1.85413c0.15998,-0.92989 0.7331,-1.60744 1.2801,-1.51332z" data-paper-data="{&quot;index&quot;:null}" fill="none" stroke-width="1"/><path d="M244.54777,174.46942c0.55302,0.04726 0.9362,0.84769 0.85587,1.78781c-0.08033,0.94012 -0.59375,1.66396 -1.14677,1.6167c-0.55302,-0.04726 -0.9362,-0.84769 -0.85587,-1.78781c0.08033,-0.94012 0.59375,-1.66396 1.14678,-1.6167z" data-paper-data="{&quot;index&quot;:null}" fill="none" stroke-width="1"/><path d="M242.58847,176.07259c0.09303,0.93895 -0.2793,1.7445 -0.83164,1.79922c-0.55233,0.05472 -1.0755,-0.6621 -1.16853,-1.60106c-0.09303,-0.93895 0.27931,-1.74451 0.83164,-1.79923c0.55233,-0.05472 1.07549,0.66209 1.16853,1.60106z" data-paper-data="{&quot;index&quot;:null}" fill="none" stroke-width="1"/><text transform="translate(232.27734,182.77564) scale(0.19851,0.19851)" font-size="40" xml:space="preserve" fill="#ffffff" fill-rule="nonzero" stroke="#ffffff" stroke-width="2" stroke-linecap="butt" stroke-linejoin="miter" stroke-miterlimit="10" stroke-dasharray="" stroke-dashoffset="0" font-family="Sans Serif" font-weight="normal" text-anchor="start" style="mix-blend-mode: normal"><tspan x="0" dy="0">-</tspan></text></g></g></svg>