<svg version="1.1" xmlns="http://www.w3.org/2000/svg" xmlns:xlink="http://www.w3.org/1999/xlink" width="31.43774" height="47.67588"><g transform="translate(-223.40874,-159.60127)"><g data-paper-data="{&quot;isPaintingLayer&quot;:true}" fill="none" fill-rule="nonzero" stroke="#000000" stroke-width="2.5" stroke-linecap="butt" stroke-linejoin="miter" stroke-miterlimit="10" stroke-dasharray="" stroke-dashoffset="0" font-family="none" font-weight="none" font-size="none" text-anchor="none" style="mix-blend-mode: normal"><g data-paper-data="{&quot;origPos&quot;:null}"><path d="M249.83265,164.41242c0.26337,0 0.47667,0.62875 0.47667,1.40512c0,6.4931 0,24.56988 0,31.06298c0,0.77638 -0.21329,1.40512 -0.47667,1.40512c-4.37725,0 -17.03277,0 -21.41002,0c-0.26337,0 -0.47668,-0.62875 -0.47668,-1.40512c0,-6.4931 0,-24.56988 0,-31.06298c0,-0.77638 0.2133,-1.40512 0.47668,-1.40512c4.37725,0 17.03277,0 21.41002,0z" data-paper-data="{&quot;origPos&quot;:null}" id="b3mBAIulRA 1"/><path d="M252.97968,160.85127c0.3408,0 0.61681,0.83854 0.61681,1.87398c0,8.65967 0,32.76825 0,41.42792c0,1.03544 -0.276,1.87398 -0.61681,1.87398c-5.66407,0 -22.04006,0 -27.70413,0c-0.3408,0 -0.6168,-0.83854 -0.6168,-1.87398c0,-8.65967 0,-32.76825 0,-41.42792c0,-1.03544 0.276,-1.87398 0.6168,-1.87398c5.66407,0 22.04006,0 27.70413,0z" data-paper-data="{&quot;origPos&quot;:null}" id="b3mBAIulRA 1"/></g></g></g></svg>