<svg version="1.1" xmlns="http://www.w3.org/2000/svg" xmlns:xlink="http://www.w3.org/1999/xlink" width="368.32067" height="190.47208" viewBox="0,0,368.32067,190.47208"><g transform="translate(-55.83966,-84.76396)"><g data-paper-data="{&quot;isPaintingLayer&quot;:true}" fill-rule="nonzero" stroke-miterlimit="10" stroke-dasharray="" stroke-dashoffset="0" style="mix-blend-mode: normal"><path d="M415.11291,86.01396c4.30833,0 7.79743,3.48909 7.79743,7.79743c0,36.032 0,136.34522 0,172.37722c0,4.30833 -3.48909,7.79743 -7.79743,7.79743c-71.60318,0 -278.62263,0 -350.22581,0c-4.30833,0 -7.79743,-3.48909 -7.79743,-7.79743c0,-36.032 0,-136.34522 0,-172.37722c0,-4.30833 3.48909,-7.79743 7.79743,-7.79743c71.60318,0 278.62263,0 350.22581,0z" fill="#ffffff" stroke="#0fbd8c" stroke-width="2.5" stroke-linecap="butt" stroke-linejoin="miter"/><g fill="#0fbd8c" stroke="none" stroke-width="1" stroke-linecap="butt" stroke-linejoin="miter"><path d="M192.94147,170.56268c-2.39454,0 -4.29609,0.91556 -5.63422,2.74668c-1.33813,1.83112 -1.97198,4.36652 -1.97198,7.6062c0,6.76107 2.5354,10.1416 7.6062,10.1416c2.11283,0 4.71866,-0.56342 7.74706,-1.61984v5.35251c-2.46497,1.05642 -5.28208,1.54941 -8.31048,1.54941c-4.36652,0 -7.74706,-1.33813 -10.07117,-4.01438c-2.32412,-2.67626 -3.52139,-6.47936 -3.52139,-11.47973c0,-3.16925 0.56342,-5.91593 1.69027,-8.24005c1.12684,-2.39454 2.81711,-4.15524 4.92994,-5.42294c2.11283,-1.2677 4.64823,-1.90155 7.53577,-1.90155c2.95797,0 5.91593,0.70428 8.8739,2.11283l-2.04241,5.21166c-1.12684,-0.56342 -2.25369,-0.98599 -3.38053,-1.40856c-1.19727,-0.42257 -2.25369,-0.63385 -3.45096,-0.63385z"/><path d="M213.01339,195.91668h-6.3385v-32.18549h6.3385z"/><path d="M240.62108,184.29609c0,3.73267 -0.98599,6.69064 -2.95797,8.80347c-1.97198,2.11283 -4.71866,3.16925 -8.31048,3.16925c-2.25369,0 -4.15524,-0.49299 -5.84551,-1.47898c-1.69027,-0.98599 -3.02839,-2.39454 -3.94396,-4.22567c-0.91556,-1.83112 -1.33813,-3.94396 -1.33813,-6.3385c0,-3.8031 0.98599,-6.69064 2.95797,-8.80347c1.97198,-2.11283 4.71866,-3.16925 8.31048,-3.16925c2.25369,0 4.15524,0.49299 5.84551,1.47898c1.69027,0.98599 3.02839,2.32412 3.94396,4.15524c0.84513,1.83112 1.33813,3.94396 1.33813,6.40893zM224.63397,184.29609c0,2.32412 0.35214,4.01438 1.12684,5.21166c0.77471,1.19727 1.97198,1.76069 3.66224,1.76069c1.69027,0 2.88754,-0.56342 3.66224,-1.76069c0.70428,-1.19727 1.12684,-2.88754 1.12684,-5.21166c0,-2.32412 -0.35214,-4.01438 -1.12684,-5.14123c-0.77471,-1.12684 -1.97198,-1.69027 -3.66224,-1.69027c-1.69027,0 -2.88754,0.56342 -3.66224,1.69027c-0.77471,1.12684 -1.12684,2.81711 -1.12684,5.14123z"/><path d="M262.2424,195.91668l-0.84513,-2.95797h-0.42257c-0.70428,1.05642 -1.61984,1.90155 -2.88754,2.46497c-1.2677,0.56342 -2.67626,0.84513 -4.22567,0.84513c-2.74668,0 -4.78909,-0.70428 -6.12722,-2.18326c-1.40856,-1.47898 -2.04241,-3.52139 -2.04241,-6.26807v-15.07154h6.3385v13.52213c0,1.69027 0.28171,2.88754 0.91556,3.73267c0.56342,0.84513 1.54941,1.2677 2.81711,1.2677c1.76069,0 3.02839,-0.56342 3.8031,-1.76069c0.77471,-1.19727 1.19727,-3.16925 1.19727,-5.84551v-10.9163h6.3385v23.10031h-4.92994z"/><path d="M280.97619,196.33924c-2.74668,0 -4.85952,-1.05642 -6.40893,-3.16925c-1.54941,-2.11283 -2.32412,-5.00037 -2.32412,-8.80347c0,-3.8031 0.77471,-6.76107 2.39454,-8.8739c1.54941,-2.11283 3.73267,-3.16925 6.54978,-3.16925c2.88754,0 5.14123,1.12684 6.69064,3.38053h0.21128c-0.35214,-1.69027 -0.49299,-3.23968 -0.49299,-4.64823v-7.32449h6.3385v32.18549h-4.85952l-1.19727,-3.02839h-0.28171c-1.40856,2.25369 -3.66224,3.45096 -6.62021,3.45096zM283.15945,191.26844c1.61984,0 2.81711,-0.49299 3.52139,-1.40856c0.70428,-0.91556 1.19727,-2.5354 1.19727,-4.78909v-0.70428c0,-2.46497 -0.35214,-4.29609 -1.12684,-5.35251c-0.77471,-1.05642 -2.04241,-1.61984 -3.73267,-1.61984c-1.40856,0 -2.5354,0.56342 -3.31011,1.76069c-0.77471,1.19727 -1.19727,2.95797 -1.19727,5.21166c0,2.25369 0.42257,4.01438 1.19727,5.14123c0.91556,1.19727 2.04241,1.76069 3.45096,1.76069z"/><path d="M301.0481,195.91668v-30.28394h6.40893v24.93143h12.25443v5.28208h-18.66336z"/><path d="M324.21885,166.75958c0,-2.04241 1.12684,-3.09882 3.45096,-3.09882c2.32412,0 3.45096,1.05642 3.45096,3.09882c0,0.98599 -0.28171,1.76069 -0.84513,2.25369c-0.56342,0.56342 -1.40856,0.84513 -2.60583,0.84513c-2.39454,0 -3.45096,-0.98599 -3.45096,-3.09882zM330.6982,195.91668h-6.3385v-23.10031h6.3385z"/><path d="M358.72846,195.91668h-6.3385v-13.52213c0,-1.69027 -0.28171,-2.88754 -0.91556,-3.73267c-0.56342,-0.84513 -1.54941,-1.2677 -2.81711,-1.2677c-1.76069,0 -3.02839,0.56342 -3.8031,1.76069c-0.77471,1.19727 -1.19727,3.16925 -1.19727,5.84551v10.9163h-6.3385v-23.10031h4.78909l0.84513,2.95797h0.35214c0.70428,-1.12684 1.69027,-1.97198 2.88754,-2.5354c1.2677,-0.56342 2.60583,-0.84513 4.22567,-0.84513c2.67626,0 4.71866,0.70428 6.12722,2.18326c1.40856,1.47898 2.11283,3.52139 2.11283,6.26807z"/><path d="M371.2646,183.31011l2.74668,-3.52139l6.47936,-7.04278h7.11321l-9.15561,10.00074l9.71903,13.09957h-7.25406l-6.69064,-9.36689l-2.67626,2.18326v7.18363h-6.3385v-32.11506h6.3385v14.36727l-0.35214,5.28208h0.07043z"/></g><g fill="none" stroke="#0fbd8c" stroke-width="9" stroke-linecap="round" stroke-linejoin="round"><path d="M103.59418,180.31692c13.4517,-12.88828 32.81934,-12.88828 46.27105,0"/><path d="M91.83276,166.65394c19.86063,-20.2832 49.58115,-20.2832 69.44179,0"/><path d="M115.21478,193.76863c6.83149,-5.77508 16.05753,-5.77508 22.88903,0"/><path d="M126.55364,208.55846v0"/></g></g></g></svg>