<svg version="1.1" xmlns="http://www.w3.org/2000/svg" xmlns:xlink="http://www.w3.org/1999/xlink" width="39.7764" height="31.17926" viewBox="0,0,39.7764,31.17926"><g transform="translate(-222.03125,-163.44574)"><g data-paper-data="{&quot;isPaintingLayer&quot;:true}" fill-rule="nonzero" stroke-miterlimit="10" stroke-dasharray="" stroke-dashoffset="0" style="mix-blend-mode: normal"><path d="M226.625,166.625h26.75c1.83906,0 3.34375,1.50469 3.34375,3.34375v20.0625c0,1.83906 -1.50469,3.34375 -3.34375,3.34375h-26.75c-1.83906,0 -3.34375,-1.50469 -3.34375,-3.34375v-20.0625c0,-1.83906 1.50469,-3.34375 3.34375,-3.34375z" fill="none" stroke="#fafafa" stroke-width="2.5" stroke-linecap="round" stroke-linejoin="round"/><path d="M256.71875,169.96875l-16.71875,11.70313l-16.71875,-11.70312" fill="none" stroke="#fafafa" stroke-width="2.5" stroke-linecap="round" stroke-linejoin="round"/><path d="M250.88855,168.82129c0,-2.96884 2.44432,-5.37555 5.45955,-5.37555c3.01522,0 5.45955,2.40672 5.45955,5.37555c0,2.96884 -2.44432,5.37555 -5.45955,5.37555c-3.01522,0 -5.45955,-2.40672 -5.45955,-5.37555z" fill="#fafafa" stroke="none" stroke-width="0" stroke-linecap="butt" stroke-linejoin="miter"/></g></g></svg>