<svg version="1.1" xmlns="http://www.w3.org/2000/svg" xmlns:xlink="http://www.w3.org/1999/xlink" width="105.69249" height="79.08756" viewBox="0,0,105.69249,79.08756"><g transform="translate(-184.94339,-140.20554)"><g data-paper-data="{&quot;isPaintingLayer&quot;:true}" fill-rule="nonzero" stroke="#674409" stroke-linejoin="miter" stroke-miterlimit="10" stroke-dasharray="" stroke-dashoffset="0" style="mix-blend-mode: normal"><path d="M206.14266,203.71511v0v0v0v0v0v0v0v0v0v0v0v0v0v0v0v0v0v0v0c-0.03782,-0.06423 -1.12672,-1.8877 -1.12672,-1.88978c-3.02013,-4.85913 -3.6894,-15.84708 -3.42728,-19.27644l0.0233,-0.16422c0.85837,-14.53594 4.31261,-20.14569 11.58782,-26.39987c6.33447,-5.4445 23.78072,-4.57162 24.23711,-4.72133l1.33754,-0.21136c1.89909,-1.52923 2.73365,-8.21544 5.13836,-4.75915l7.34825,9.7369c2.49483,0.97908 3.72722,-4.32192 6.34173,-5.0482c2.44354,-0.70193 7.33065,-0.23882 7.42545,1.97421l0.35227,5.74598c1.50488,4.295 3.60911,7.53476 6.22828,12.16802c0.84646,1.52094 1.95038,2.89008 2.61397,4.56229c2.41298,6.07599 2.76215,16.9054 0.05595,22.26962c-0.46674,0.94903 -0.97649,1.8701 -1.50437,2.77613c-0.13728,0.2326 -0.27611,0.46415 -0.41546,0.69157c-0.4828,0.79673 -0.98789,1.57895 -1.51887,2.33528c-0.07252,0.10101 -0.13625,0.20774 -0.20877,0.30875c-0.60144,0.84233 -1.23705,1.65458 -1.89703,2.44355c-0.15697,0.19064 -0.32325,0.37401 -0.48436,0.56361c-0.56569,0.65117 -1.15211,1.28421 -1.75405,1.89341c-0.13883,0.14349 -0.27352,0.28803 -0.41391,0.42478c-0.7242,0.70918 -1.47846,1.3852 -2.2555,2.03119c-0.17354,0.14143 -0.35071,0.27767 -0.5253,0.41651c-0.65273,0.52113 -1.32667,1.01949 -2.01669,1.49453c-0.19893,0.13572 -0.39319,0.27818 -0.59418,0.41027c-0.84233,0.55533 -1.70433,1.07596 -2.59637,1.55772c-0.15852,0.08652 -0.3279,0.1637 -0.48901,0.24763c-0.7615,0.39733 -1.5401,0.76253 -2.33632,1.1008c-3.36771,1.43028 -7.0245,2.36223 -10.95065,2.64559c-4.48615,0.32376 -8.54803,0.18753 -12.21723,-0.29217c-0.90758,-0.11812 -1.79031,-0.26006 -2.64972,-0.41908c-0.16318,-0.03316 -0.32585,-0.06527 -0.48747,-0.09688c-0.87133,-0.172 -1.72659,-0.35641 -2.54715,-0.56725c-0.00518,-0.00207 -0.0114,-0.00362 -0.01709,-0.00518c-0.82212,-0.20721 -1.61262,-0.44136 -2.3845,-0.69002c-0.13521,-0.04402 -0.27403,-0.08704 -0.40821,-0.13055c-0.74235,-0.24192 -1.46499,-0.50197 -2.16174,-0.77861c-0.12225,-0.04558 -0.24088,-0.09946 -0.36262,-0.14712c-0.68742,-0.27715 -1.35827,-0.56621 -2.00167,-0.87237c-0.02486,-0.01451 -0.05232,-0.0233 -0.07615,-0.03626c-0.65893,-0.31704 -1.28783,-0.6465 -1.89963,-0.98425c-0.11395,-0.06372 -0.22742,-0.12588 -0.33827,-0.18908c-0.58848,-0.33516 -1.15884,-0.67706 -1.70225,-1.02932c-0.08288,-0.05388 -0.16162,-0.10879 -0.244,-0.16163c-0.51596,-0.34139 -1.01534,-0.6895 -1.49245,-1.04487c-0.0492,-0.03316 -0.10361,-0.0689 -0.15074,-0.1062c-0.49732,-0.37453 -0.96768,-0.75735 -1.42095,-1.14328c-0.08807,-0.07356 -0.17458,-0.14867 -0.25902,-0.22276c-0.44188,-0.38541 -0.86719,-0.77134 -1.2671,-1.16713c-0.04559,-0.043 -0.08702,-0.0891 -0.13209,-0.13261c-0.3766,-0.37609 -0.73404,-0.75477 -1.0718,-1.13293c-0.04715,-0.05542 -0.10101,-0.10878 -0.14867,-0.16215c-0.34656,-0.39837 -1.09461,-1.34326 -1.15211,-1.41888c-0.30149,-0.39837 -0.58847,-0.79674 -0.84852,-1.19302c-0.01605,-0.02436 -0.03159,-0.04922 -0.04611,-0.07355c-0.24918,-0.3818 -0.47607,-0.75684 -0.68794,-1.13085z" fill="#4b3207" stroke-width="0.5" stroke-linecap="butt"/><path d="M258.07835,184.58113v0v0v0v0v0v0v0v0v0v0v0v0v0v0v0v0v0v0v0c0,0 8.19939,9.28932 5.66621,18.92572c-2.53265,9.63381 -17.66691,13.71486 -29.29514,12.98236c-15.37256,-0.96923 -19.44893,-10.01456 -19.96955,-18.89828c-0.42478,-7.27937 18.24658,-12.31046 17.50943,-13.69153l-3.06155,-4.08934c1.51369,-1.24742 5.13006,-0.90034 7.4959,-0.10568c2.66838,0.89826 4.05205,6.67431 6.96803,4.61773l8.58739,-5.67556c1.60538,-0.24555 0.93246,3.26669 2.32233,4.30069c0.81744,1.08993 3.77696,1.63387 3.77696,1.63387z" fill="#4b3207" stroke-width="0" stroke-linecap="butt"/><path d="M230.37148,191.74859c0.78533,0 1.49712,0.31808 2.01255,0.83092c0.51491,0.51389 0.83403,1.22256 0.83403,2.0053c0,0.78223 -0.3191,1.49089 -0.83403,2.00478c-0.51544,0.51284 -1.22721,0.83091 -2.01255,0.83091c-0.78533,0 -1.49658,-0.31806 -2.01202,-0.83091c-0.51491,-0.51389 -0.83455,-1.22255 -0.83455,-2.00478c0,-0.78274 0.31964,-1.4914 0.83455,-2.0053c0.51544,-0.51284 1.22669,-0.83092 2.01202,-0.83092v0v0v0v0v0v0v0v0v0v0v0v0v0v0v0v0v0v0v0v0v0v0v0v0v0v0v0v0v0v0z" fill="#4b3207" stroke-width="0.5" stroke-linecap="butt"/><path d="M254.20089,191.48958c0.78533,0 1.49712,0.31807 2.01255,0.83092c0.51491,0.51389 0.83402,1.22257 0.83402,2.0053c0,0.78223 -0.3191,1.49089 -0.83402,2.00478c-0.51544,0.51284 -1.22721,0.83092 -2.01255,0.83092c-0.78533,0 -1.4966,-0.31807 -2.01203,-0.83092c-0.51491,-0.51389 -0.83455,-1.22255 -0.83455,-2.00478c0,-0.78274 0.31962,-1.49141 0.83455,-2.0053c0.51544,-0.51284 1.2267,-0.83092 2.01203,-0.83092v0v0v0v0v0v0v0v0v0v0v0v0v0v0v0v0v0v0v0v0v0v0v0v0v0v0v0v0v0v0z" fill="#4b3207" stroke-width="0.5" stroke-linecap="butt"/><g fill="#4b3207" stroke-width="0.5" stroke-linecap="round"><path d="M271.07207,179.04857c0,0 7.08511,-7.9326 7.47881,-8.30818c0.39421,-0.37557 3.32214,-3.96553 11.76137,-5.1917c0,0 -5.41911,24.09929 -18.04352,29.61165c0,-0.00051 1.20079,-6.89602 -1.19666,-16.11177zM271.12132,179.24282c-0.18234,-0.76202 -0.73249,-2.10787 -0.73249,-2.10787M271.6637,197.00817c0,0 0.48487,-1.15521 0.60505,-1.84833"/><path d="M277.29984,191.37251c0,0 -1.264,-0.97183 -1.40956,-4.16809c-0.09377,-1.98249 0.77705,-5.59835 0.77705,-5.59835l-0.07045,0.11552c0.55275,-0.63873 1.135,-1.38522 1.66289,-2.20422c0.89412,-1.38521 1.94054,-3.46303 2.89941,-5.51132l0.14816,-0.2818c0,0 2.53576,-3.70859 7.7917,-4.17793l0.06009,0.03316c-1.10704,3.66352 -2.91339,9.03652 -4.91352,12.70729c-2.24358,4.11731 -4.83997,7.10737 -7.03848,9.16085l0.09273,-0.0751v0v0v0zM274.47868,183.78646c0,0 1.8442,-1.8017 2.18867,-2.18039"/></g><g fill="#4b3207" stroke-width="0.5" stroke-linecap="round"><path d="M204.49742,194.6418c-12.62336,-5.51236 -18.043,-29.61166 -18.043,-29.61166c8.43923,1.22669 11.36765,4.81665 11.76188,5.19171c0.39369,0.37454 7.47882,8.30817 7.47882,8.30817c-2.39849,9.21628 -1.19769,16.11179 -1.19769,16.11179v0v0v0zM206.37735,176.61693c0,0 -0.55014,1.34584 -0.73198,2.10787M204.49742,194.6418c0.12071,0.69313 0.60507,1.84834 0.60507,1.84834"/><path d="M199.55901,190.92959c-2.19853,-2.05451 -4.79385,-5.04459 -7.03847,-9.16085c-2.00063,-3.67077 -3.80597,-9.04376 -4.91352,-12.70728l0.06061,-0.03316c5.25644,0.46984 7.79118,4.17792 7.79118,4.17792l0.14868,0.2818c0.95887,2.04829 2.00478,4.12612 2.89941,5.51132c0.52736,0.81901 1.11014,1.56548 1.66236,2.20422l-0.07046,-0.11551c0,0 0.87134,3.61585 0.77757,5.59836c-0.14556,3.19626 -1.41008,4.16807 -1.41008,4.16807l0.09273,0.07512v0v0v0zM200.09881,181.08804c0.345,0.37868 2.18867,2.18039 2.18867,2.18039"/></g><path d="M249.77847,200.95193c0,0 -5.54344,3.18641 -8.68167,3.33508c-2.92221,0.28492 -8.62831,-2.09544 -8.62831,-2.09544" fill="#4b3207" stroke-width="0.5" stroke-linecap="round"/><path d="M205.376,199.18177v0v0v0v0v0v0v0v0v0v0v0v0v0v0v0v0v0v0v0c-0.03782,-0.06423 -1.12672,-1.8877 -1.12672,-1.88978c-3.02013,-4.85913 -3.68941,-15.84707 -3.42729,-19.27644l0.02331,-0.16422c0.85837,-14.53594 4.31261,-20.14568 11.58782,-26.39987c6.33447,-5.4445 23.78071,-4.57162 24.2371,-4.72133l1.33754,-0.21136c1.89909,-1.52923 2.73365,-8.21544 5.13836,-4.75915l7.34825,9.7369c2.49483,0.97908 3.72722,-4.32192 6.34173,-5.0482c2.44354,-0.70194 7.33065,-0.23882 7.42545,1.97421l0.35226,5.74599c1.50488,4.29499 3.60912,7.53476 6.22829,12.16802c0.84646,1.52093 1.95038,2.89008 2.61397,4.56229c2.41298,6.07599 2.76215,16.9054 0.05595,22.26961c-0.46674,0.94903 -0.97649,1.8701 -1.50437,2.77613c-0.13728,0.2326 -0.27611,0.46415 -0.41546,0.69156c-0.4828,0.79673 -0.98789,1.57895 -1.51887,2.33528c-0.07252,0.10102 -0.13625,0.20774 -0.20877,0.30875c-0.60144,0.84232 -1.23705,1.65458 -1.89703,2.44354c-0.15697,0.19065 -0.32325,0.37401 -0.48436,0.56361c-0.56569,0.65117 -1.15211,1.28421 -1.75405,1.89341c-0.13883,0.14349 -0.27352,0.28803 -0.41391,0.42478c-0.7242,0.70918 -1.47846,1.3852 -2.2555,2.03119c-0.17354,0.14142 -0.35071,0.27767 -0.5253,0.4165c-0.65273,0.52113 -1.32667,1.01949 -2.01669,1.49453c-0.19893,0.13572 -0.39319,0.27818 -0.59418,0.41028c-0.84233,0.55532 -1.70433,1.07596 -2.59637,1.55772c-0.15852,0.08651 -0.3279,0.1637 -0.48901,0.24762c-0.7615,0.39733 -1.5401,0.76254 -2.33632,1.1008c-3.36771,1.43029 -7.0245,2.36223 -10.95065,2.64559c-4.48615,0.32376 -8.54803,0.18754 -12.21723,-0.29217c-0.90758,-0.11812 -1.79031,-0.26006 -2.64973,-0.41908c-0.16318,-0.03316 -0.32585,-0.06527 -0.48747,-0.09688c-0.87133,-0.172 -1.7266,-0.35641 -2.54716,-0.56725c-0.00518,-0.00207 -0.0114,-0.00362 -0.01709,-0.00518c-0.82212,-0.20721 -1.61262,-0.44136 -2.3845,-0.69002c-0.13521,-0.04402 -0.27403,-0.08704 -0.4082,-0.13055c-0.74235,-0.24192 -1.46499,-0.50197 -2.16174,-0.77861c-0.12225,-0.04558 -0.24088,-0.09946 -0.36262,-0.14712c-0.68742,-0.27715 -1.35827,-0.56621 -2.00167,-0.87237c-0.02486,-0.01452 -0.05232,-0.0233 -0.07615,-0.03626c-0.65893,-0.31703 -1.28783,-0.6465 -1.89962,-0.98425c-0.11395,-0.06372 -0.22742,-0.12588 -0.33827,-0.18909c-0.58848,-0.33516 -1.15884,-0.67706 -1.70225,-1.02932c-0.08288,-0.05388 -0.16162,-0.10879 -0.244,-0.16163c-0.51596,-0.34139 -1.01534,-0.6895 -1.49244,-1.04487c-0.0492,-0.03316 -0.10361,-0.0689 -0.15075,-0.10619c-0.49732,-0.37454 -0.96768,-0.75735 -1.42095,-1.14328c-0.08807,-0.07356 -0.17457,-0.14868 -0.25902,-0.22276c-0.44188,-0.38541 -0.86719,-0.77134 -1.2671,-1.16713c-0.04559,-0.043 -0.08702,-0.08909 -0.13209,-0.13261c-0.3766,-0.37609 -0.73404,-0.75477 -1.0718,-1.13293c-0.04715,-0.05542 -0.10101,-0.10878 -0.14867,-0.16215c-0.34656,-0.39837 -1.09461,-1.34326 -1.15211,-1.41888c-0.30149,-0.39837 -0.58847,-0.79674 -0.84853,-1.19302c-0.01605,-0.02436 -0.03159,-0.04922 -0.0461,-0.07355c-0.24918,-0.3818 -0.47607,-0.75684 -0.68794,-1.13085z" fill="#674409" stroke-width="1.15" stroke-linecap="butt"/><path d="M257.31168,180.04779v0v0v0v0v0v0v0v0v0v0v0v0v0v0v0v0v0v0v0c0,0 8.19939,9.28932 5.66621,18.92572c-2.53265,9.63381 -17.66691,13.71486 -29.29514,12.98236c-15.37256,-0.96923 -19.44893,-10.01456 -19.96955,-18.89828c-0.42478,-7.27937 18.24658,-12.31046 17.50943,-13.69154l-3.06155,-4.08934c1.51369,-1.24741 5.13006,-0.90033 7.4959,-0.10568c2.66838,0.89826 4.05205,6.67432 6.96803,4.61774l8.58738,-5.67556c1.60539,-0.24555 0.93245,3.26669 2.32233,4.30068c0.81745,1.08994 3.77696,1.63388 3.77696,1.63388z" fill="#674409" stroke-width="1.15" stroke-linecap="butt"/><path d="M229.60482,187.21526c0.78533,0 1.49712,0.31808 2.01256,0.83093c0.51491,0.51389 0.83403,1.22255 0.83403,2.00529c0,0.78223 -0.3191,1.49089 -0.83403,2.00479c-0.51544,0.51284 -1.22721,0.83091 -2.01256,0.83091c-0.78533,0 -1.49658,-0.31806 -2.01202,-0.83091c-0.51491,-0.51389 -0.83455,-1.22256 -0.83455,-2.00479c0,-0.78274 0.31964,-1.4914 0.83455,-2.00529c0.51544,-0.51284 1.22669,-0.83093 2.01202,-0.83093v0v0v0v0v0v0v0v0v0v0v0v0v0v0v0v0v0v0v0v0v0v0v0v0v0v0v0v0v0v0z" fill="#674409" stroke-width="1.15" stroke-linecap="butt"/><path d="M253.43423,186.95625c0.78534,0 1.49712,0.31807 2.01256,0.83092c0.51491,0.51389 0.83402,1.22257 0.83402,2.0053c0,0.78223 -0.3191,1.49089 -0.83402,2.00478c-0.51544,0.51284 -1.22721,0.83092 -2.01256,0.83092c-0.78533,0 -1.4966,-0.31807 -2.01203,-0.83092c-0.51491,-0.51389 -0.83455,-1.22255 -0.83455,-2.00478c0,-0.78274 0.31962,-1.49141 0.83455,-2.0053c0.51544,-0.51284 1.2267,-0.83092 2.01203,-0.83092v0v0v0v0v0v0v0v0v0v0v0v0v0v0v0v0v0v0v0v0v0v0v0v0v0v0v0v0v0v0z" fill="#674409" stroke-width="1.15" stroke-linecap="butt"/><g fill="#674409" stroke-width="1.15" stroke-linecap="round"><path d="M270.30541,174.51523c0,0 7.08511,-7.93261 7.4788,-8.30818c0.39421,-0.37557 3.32214,-3.96553 11.76137,-5.19171c0,0 -5.41911,24.09929 -18.04352,29.61166c0,-0.00051 1.20079,-6.89602 -1.19665,-16.11177zM270.35465,174.70949c-0.18234,-0.76202 -0.73249,-2.10787 -0.73249,-2.10787M270.89703,192.47483c0,0 0.48487,-1.15521 0.60506,-1.84833"/><path d="M276.53317,186.83918c0,0 -1.264,-0.97183 -1.40956,-4.16808c-0.09377,-1.98249 0.77705,-5.59835 0.77705,-5.59835l-0.07045,0.11552c0.55275,-0.63872 1.135,-1.38521 1.66288,-2.20422c0.89412,-1.38521 1.94054,-3.46303 2.89942,-5.51132l0.14815,-0.2818c0,0 2.53576,-3.70859 7.7917,-4.17792l0.0601,0.03316c-1.10704,3.66352 -2.91339,9.03651 -4.91352,12.70728c-2.24358,4.11731 -4.83997,7.10737 -7.03848,9.16085l0.09273,-0.0751v0v0v0zM273.71201,179.25313c0,0 1.8442,-1.8017 2.18867,-2.18039"/></g><g fill="#674409" stroke-width="1.15" stroke-linecap="round"><path d="M203.73075,190.10847c-12.62336,-5.51236 -18.043,-29.61165 -18.043,-29.61165c8.43923,1.22668 11.36765,4.81665 11.76188,5.19171c0.39369,0.37453 7.47882,8.30817 7.47882,8.30817c-2.39849,9.21628 -1.19769,16.11179 -1.19769,16.11179v0v0v0zM205.61069,172.08359c0,0 -0.55015,1.34584 -0.73198,2.10787M203.73075,190.10847c0.12071,0.69313 0.60506,1.84833 0.60506,1.84833"/><path d="M198.79234,186.39625c-2.19853,-2.05451 -4.79385,-5.04459 -7.03847,-9.16085c-2.00063,-3.67077 -3.80597,-9.04377 -4.91352,-12.70729l0.06061,-0.03316c5.25644,0.46985 7.79118,4.17793 7.79118,4.17793l0.14868,0.2818c0.95887,2.04829 2.00478,4.12611 2.89941,5.51132c0.52736,0.81901 1.11013,1.56548 1.66236,2.20422l-0.07045,-0.11552c0,0 0.87134,3.61585 0.77757,5.59836c-0.14556,3.19626 -1.41008,4.16807 -1.41008,4.16807l0.09273,0.07511v0v0v0zM199.33215,176.55471c0.345,0.37869 2.18868,2.18039 2.18868,2.18039"/></g><path d="M249.01181,196.4186c0,0 -5.54344,3.18641 -8.68167,3.33508c-2.92221,0.28492 -8.62831,-2.09543 -8.62831,-2.09543" fill="#674409" stroke-width="1.15" stroke-linecap="round"/></g></g></svg>