<svg version="1.1" xmlns="http://www.w3.org/2000/svg" xmlns:xlink="http://www.w3.org/1999/xlink" width="33.92858" height="4.42858" viewBox="0,0,33.92858,4.42858"><g transform="translate(-222.53571,-177.78571)"><g data-paper-data="{&quot;isPaintingLayer&quot;:true}" fill="#0fbd8c" fill-rule="nonzero" stroke-linecap="butt" stroke-linejoin="miter" stroke-miterlimit="10" stroke-dasharray="" stroke-dashoffset="0" style="mix-blend-mode: normal"><path d="M246.3393,180c0,0.67063 -0.54365,1.21429 -1.21429,1.21429c-0.67063,0 -1.21429,-0.54365 -1.21429,-1.21429c0,-0.67063 0.54365,-1.21429 1.21429,-1.21429c0.67063,0 1.21429,0.54365 1.21429,1.21429z" data-paper-data="{&quot;origPos&quot;:null}" stroke="#009889" stroke-width="0"/><path d="M236.0893,180c0,0.67063 -0.54365,1.21429 -1.21429,1.21429c-0.67063,0 -1.21429,-0.54365 -1.21429,-1.21429c0,-0.67063 0.54365,-1.21429 1.21429,-1.21429c0.67063,0 1.21429,0.54365 1.21429,1.21429z" data-paper-data="{&quot;origPos&quot;:null}" stroke="#ff9b00" stroke-width="0"/><path d="M225.9643,180c0,0.67063 -0.54365,1.21429 -1.21429,1.21429c-0.67063,0 -1.21429,-0.54365 -1.21429,-1.21429c0,-0.67063 0.54365,-1.21429 1.21429,-1.21429c0.67063,0 1.21429,0.54365 1.21429,1.21429z" data-paper-data="{&quot;origPos&quot;:null}" stroke="#0fbd8c" stroke-width="2"/><path d="M256.4643,180c0,0.67063 -0.54365,1.21429 -1.21429,1.21429c-0.67063,0 -1.21429,-0.54365 -1.21429,-1.21429c0,-0.67063 0.54365,-1.21429 1.21429,-1.21429c0.67063,0 1.21429,0.54365 1.21429,1.21429z" data-paper-data="{&quot;origPos&quot;:null}" stroke="#009889" stroke-width="0"/></g></g></svg>