<svg version="1.1" xmlns="http://www.w3.org/2000/svg" xmlns:xlink="http://www.w3.org/1999/xlink" width="125.09836" height="69.7586" viewBox="0,0,125.09836,69.7586"><g transform="translate(-169.59609,-163.5414)"><g data-paper-data="{&quot;isPaintingLayer&quot;:true}" fill-rule="nonzero" stroke-linejoin="miter" stroke-miterlimit="10" stroke-dasharray="" stroke-dashoffset="0" style="mix-blend-mode: normal"><path d="M267.75,216.9v0" fill="#ffffff" stroke="none" stroke-width="1" stroke-linecap="butt"/><path d="M210.75,216.9" fill="#ffffff" stroke="none" stroke-width="1" stroke-linecap="butt"/><g><path d="M275.65,209c0,18.3 -16.5,24.2 -36.9,24.2c-20.4,0 -36.9,-5.9 -36.9,-24.2c0,-8.6 2.4,-18.5 7.7,-26.5l-4.3,-14.5c-0.8,-2.7 2,-5.3 4.6,-4.2l14.3,6c4.2,-1.9 9,-3 14.6,-3c5.5,0 10.3,1.2 14.5,3.1l14.4,-6c2.6,-1.1 5.4,1.5 4.6,4.2l-4.4,14.7c5.3,7.9 7.8,17.7 7.8,26.2z" fill="#ff7319" stroke="none" stroke-width="1" stroke-linecap="butt"/><path d="M267.65,220.6c0,9.6 -12.9,12.7 -28.9,12.7c-16,0 -28.9,-3.1 -28.9,-12.7c0,-9.6 8.6,-22.1 28.9,-22.1c19.8,0 28.9,12.5 28.9,22.1z" fill="#ffffff" stroke="none" stroke-width="1" stroke-linecap="butt"/><path d="M235.55,202.9c0,-1.3 1.4,-1.7 3.2,-1.7c1.8,0 3.2,0.4 3.2,1.7c0,1.3 -1,2.9 -3.2,2.9c-2.2,0 -3.2,-1.6 -3.2,-2.9z" fill="#945600" stroke="#000000" stroke-width="1.5" stroke-linecap="butt"/><g fill="none" stroke="#000000" stroke-width="2.5" stroke-linecap="round"><path d="M249.75,207.1c0,3 -2.5,5.5 -5.5,5.5c-3,0 -5.5,-2.4 -5.5,-5.5c0,-0.2 0,-0.2 0,-0.2c0,-0.2 0,-0.3 0,-0.3c0,0 0,0.1 0,0.3c0,0 0,0 0,0.2c0,3 -2.5,5.5 -5.5,5.5c-3,0 -5.5,-2.4 -5.5,-5.5"/></g><path d="M229.25,191.8c0,-1.71208 1.38792,-3.1 3.1,-3.1c1.71208,0 3.1,1.38792 3.1,3.1c0,1.71208 -1.38792,3.1 -3.1,3.1c-1.71208,0 -3.1,-1.38792 -3.1,-3.1z" fill="#000000" stroke="none" stroke-width="1" stroke-linecap="butt"/><path d="M242.05,191.8c0,-1.71208 1.38792,-3.1 3.1,-3.1c1.71208,0 3.1,1.38792 3.1,3.1c0,1.71208 -1.38792,3.1 -3.1,3.1c-1.71208,0 -3.1,-1.38792 -3.1,-3.1z" fill="#000000" stroke="none" stroke-width="1" stroke-linecap="butt"/><path d="M216.25,175.3c-2,1.8 -3.8,3.5 -5.3,6.1l-3.9,-13.5c-0.3,-1.6 1.2,-3 2.8,-2.5l12.9,5.4c-3,1.2 -4.6,2.8 -6.5,4.5z" fill="#77500c" stroke="none" stroke-width="1" stroke-linecap="butt"/><path d="M255.15,170.8l12.9,-5.4c1.6,-0.5 3.1,0.9 2.8,2.5l-3.8,13.6c-1.6,-2.6 -3.3,-4.3 -5.4,-6.1c-1.9,-1.8 -3.6,-3.4 -6.5,-4.6z" fill="#77500c" stroke="none" stroke-width="1" stroke-linecap="butt"/><path d="M235.55,212.9c0,-1.3 1.4,-1.7 3.2,-1.7c1.8,0 3.2,0.4 3.2,1.7c0,1.3 -1,2.9 -3.2,2.9c-2.2,0.1 -3.2,-1.6 -3.2,-2.9z" fill="#000000" stroke="#000000" stroke-width="1.5" stroke-linecap="butt"/></g><g><path d="M275.45,207.7c-0.1,0.1 -0.3,0.2 -0.5,0.3c-0.4,0 -0.8,0 -1.1,-0.2c-0.5,-0.3 -0.9,-0.6 -1.2,-1.1c-0.2,-0.3 -0.3,-0.7 -0.4,-1c0,-0.1 0,-0.2 0.1,-0.4c0.6,-0.8 1.2,-1.6 1.9,-2.2c0.2,-0.2 0.6,-0.4 0.9,-0.2c0.9,0.6 1.8,1.3 2.4,2.3c0.2,0.3 -0.4,0.6 -0.6,0.9c-0.4,0.5 -0.9,1.1 -1.5,1.6z" fill="#ff9400" stroke="none" stroke-width="1" stroke-linecap="butt"/><path d="M278.35,204.4c-0.3,0.3 -0.3,0.4 -0.5,0.4c-0.6,-0.2 -1.2,-0.5 -1.7,-0.9c-0.4,-0.4 -0.6,-1 -0.8,-1.5c-0.1,-0.1 -0.3,-0.1 -0.1,-0.4c1,-1.3 2.1,-2.5 3.2,-3.8c3.5,-4.2 7,-8.5 10.5,-12.7c0.9,-1.1 0.4,-0.4 0.6,-0.4c0.6,0 1.1,0.1 1.6,0.4c0.4,0.2 0.7,0.6 1,0.9c0.2,0.2 0.5,0.5 0.5,0.8c0,0.3 0.4,-0.2 -0.4,0.9c-3.4,4.2 -6.8,8.4 -10.3,12.5c-1.2,1.3 -2.4,2.6 -3.6,3.8z" fill="#ffff00" stroke="none" stroke-width="1" stroke-linecap="butt"/><path d="M281.75,197.6c-1.6,1.9 -3.2,3.9 -4.9,5.8c-0.4,0.5 -0.3,0.6 -0.6,0.6c-0.2,0 -0.4,-0.2 -0.5,-0.4c-0.3,-0.4 -0.5,-0.8 -0.6,-1.3c0,-0.2 -0.3,0.2 0.2,-0.5c2.1,-2.7 4.3,-5.3 6.5,-8c2.3,-2.8 4.7,-5.7 7.1,-8.5c0.6,-0.7 0.4,-0.2 0.6,-0.2c0.4,0 0.8,-0.1 1.1,0.1c0.4,0.2 0.8,0.4 0.9,0.8c0.1,0.3 0.1,0 -0.5,0.7c-2.3,2.7 -4.6,5.4 -6.9,8.1c-0.8,0.9 -1.6,1.9 -2.4,2.8z" fill="#f6e575" stroke="none" stroke-width="1" stroke-linecap="butt"/><path d="M276.65,206.5c-0.1,0.1 -0.1,0.1 -0.2,0.1c-0.5,-0.1 -0.9,-0.3 -1.3,-0.6c-0.4,-0.3 -0.8,-0.7 -1.1,-1.1c-0.2,-0.3 -0.4,-0.6 -0.5,-0.9c0,-0.1 -0.1,0 0,-0.2c0.5,-0.6 1,-1.1 1.5,-1.7c0.1,-0.1 0.1,-0.1 0.2,-0.1c0.2,0.2 0.2,0.5 0.4,0.6c0.4,0.5 0.8,0.9 1.3,1.3c0.3,0.2 0.7,0.3 1,0.4c0.1,0 0.2,0 0.3,0.1c0,0.1 0,0 -0.1,0.1c-0.6,0.9 -1,1.5 -1.5,2z" fill="#c0c8c9" stroke="none" stroke-width="1" stroke-linecap="butt"/><path d="M277.35,205.5c0,0 -1.2,-0.3 -1.7,-0.7c-0.6,-0.5 -0.7,-0.5 -1.3,-1.8" fill="none" stroke="#acb3b4" stroke-width="2" stroke-linecap="round"/><path d="M292.15,186.9c-0.2,-0.1 -0.5,0.2 -0.6,0.1c-0.2,-0.2 0,-0.8 -0.3,-1c-0.3,-0.2 -0.7,0.4 -0.9,0.2c-0.2,-0.2 0,-0.7 -0.2,-0.9c-0.2,-0.2 -0.6,0 -0.8,-0.2c-0.1,-0.1 -0.1,-0.1 0.2,-0.3c1.5,-0.9 3,-1.9 4.6,-2.7c0.4,-0.2 0.4,0 0.3,0.3c-0.4,1.5 -1,3 -1.5,4.4c-0.1,0.4 -0.2,0.5 -0.3,0.6c-0.1,0.1 -0.2,0.1 -0.2,0c-0.2,-0.1 -0.1,-0.4 -0.3,-0.5z" fill="#ffffcc" stroke="none" stroke-width="1" stroke-linecap="butt"/><path d="M294.65,181.9c-0.1,0.3 -0.2,0.6 -0.3,1c0,0.1 0,0.1 -0.1,0.1c-0.1,0 -0.3,-0.1 -0.4,-0.2c-0.1,-0.1 -0.2,-0.2 -0.3,-0.4c0,0 0,0 0.1,-0.1c0.4,-0.2 0.7,-0.4 1,-0.4c0.1,-0.1 0,-0.1 0,0z" fill="#464646" stroke="none" stroke-width="1" stroke-linecap="butt"/><path d="M277.55,202.5l12.1,-14.4" fill="none" stroke="#edd571" stroke-width="2" stroke-linecap="round"/></g><path d="M194.55,215.9l-24.6,-24.5l15.6,-15.6l24.5,24.5z" fill="#ffffff" stroke="#b5b5b5" stroke-width="0.5" stroke-linecap="butt"/><path d="M186.35,184.5c0.3,0.7 -0.3,1 -0.3,1l-1,0.4c-1.3,-0.2 -2.1,3.3 -3.7,3.9c-1.7,0.7 -3.2,-0.7 -3.9,1.5c0,0 -0.2,0.7 -0.9,0.5c-0.7,-0.2 -0.5,-0.9 -0.5,-0.9c0.3,-0.9 0.4,-1.6 1.3,-2.1c1.2,-0.7 2.3,0 3.4,-0.4c2.3,-0.9 1.4,-3.9 4.3,-4.1l0.3,-0.3c0,0.2 0.7,-0.2 1,0.5z" fill="#b5b5b5" stroke="none" stroke-width="1" stroke-linecap="butt"/><path d="M190.15,190.8c0,0.8 -0.8,0.8 -0.8,0.8l0.2,-0.2c-1.1,1.1 -2.5,2.3 -3.8,3.1c-0.6,0.3 -1.4,-0.1 -2,0.3c-1,0.8 -0.9,1.8 -2.8,1.8c0,0 -0.8,0 -0.8,-0.8c0,-0.8 0.8,-0.8 0.8,-0.8c0.8,0 1.2,-1.1 1.9,-1.5c0.6,-0.4 1.5,0 2,-0.4c1.2,-0.8 2.5,-1.8 3.5,-2.9l0.9,-0.2c0.1,0.1 0.9,0.1 0.9,0.8z" fill="#b5b5b5" stroke="none" stroke-width="1" stroke-linecap="butt"/><path d="M194.75,195.6c0.2,0.7 -0.5,0.9 -0.5,0.9l-1.1,0.4c-0.6,0 -1.3,-0.5 -1.7,-0.1c-0.6,0.5 -0.9,2.6 -1.6,3.3c-1.3,1.1 -2.3,0.3 -3.6,1.6c0,0 -0.5,0.5 -1.1,0c-0.5,-0.5 0,-1.1 0,-1.1c0.2,-0.2 1.4,-1.4 1.6,-1.5c0.7,-0.2 1.6,0.3 2.1,-0.2c1.8,-1.9 0.7,-3.5 4,-3.5l0.9,-0.3c0,0 0.8,-0.2 1,0.5z" fill="#b5b5b5" stroke="none" stroke-width="1" stroke-linecap="butt"/><path d="M200.15,202.2c0,0.8 -0.8,0.8 -0.8,0.8l-0.1,-0.2c-1.5,1.5 -1.9,1.8 -3.9,2.5c-0.6,0.2 -0.8,1.1 -1.3,1.3c-1.7,0.7 -2.9,-0.9 -3.6,1.2c0,0 -0.2,0.7 -0.9,0.5c-0.7,-0.2 -0.5,-0.9 -0.5,-0.9c1.1,-3 2.3,-1.3 4.4,-2.1c0.6,-0.2 0.8,-1.1 1.3,-1.3c0.5,-0.2 1.4,0.4 1.7,-0.1c0.1,-0.3 -0.2,-0.7 0,-1c0.4,-0.5 1.3,-0.6 1.7,-1.1l1.2,-0.2c0,-0.2 0.8,-0.2 0.8,0.6z" fill="#b5b5b5" stroke="none" stroke-width="1" stroke-linecap="butt"/></g></g></svg>